<?xml version="1.0" encoding="utf-8"?>
<!-- Generator: Adobe Illustrator 24.3.0, SVG Export Plug-In . SVG Version: 6.00 Build 0)  -->
<svg version="1.0" id="Layer_1" xmlns="http://www.w3.org/2000/svg" xmlns:xlink="http://www.w3.org/1999/xlink" x="0px" y="0px"
	 width="12px" height="12px" viewBox="0 0 12 12" style="enable-background:new 0 0 12 12;" xml:space="preserve">
<path id="sign_border" d="M11.95648,10.76479l-5.67837-9.8361C6.22009,0.82865,6.11405,0.76862,6,0.76862
	c-0.11405,0-0.22009,0.06203-0.27812,0.16007l-5.67837,9.8361c-0.05802,0.10004-0.05802,0.22209,0,0.32013
	c0.05802,0.10004,0.16407,0.16007,0.27812,0.16007h11.35673c0.11405,0,0.22009-0.06203,0.27812-0.16007
	C12.01451,10.98488,12.01451,10.86283,11.95648,10.76479L11.95648,10.76479z"/>
<polygon id="polygon7" style="fill:#F6BD16;" points="0.87987,10.60323 6.002,1.76977 11.12414,10.60323 "/>
<path id="path1995" d="M6.76016,9.46487c0,0.41872-0.33944,0.75816-0.75816,0.75816S5.24384,9.88359,5.24384,9.46487
	S5.58328,8.70671,6.002,8.70671S6.76016,9.04615,6.76016,9.46487L6.76016,9.46487z"/>
<path id="rect1997" d="M6.002,4.14204c-0.41312,0-0.74565,0.3396-0.74565,0.76145l0.22047,2.66738
	C5.51893,7.9159,5.55489,8.11139,5.69729,8.20333C5.79027,8.24569,5.89327,8.2698,6.002,8.2698
	c0.10821,0,0.21076-0.02384,0.3034-0.06581c0.1432-0.09167,0.17959-0.28731,0.22179-0.63311l0.22047-2.66738
	C6.74766,4.48164,6.41512,4.14204,6.002,4.14204L6.002,4.14204z"/>
</svg>
