<?xml version="1.0" encoding="utf-8"?>
<!-- Generator: Adobe Illustrator 24.1.3, SVG Export Plug-In . SVG Version: 6.00 Build 0)  -->
<svg version="1.1" id="Layer_1" xmlns="http://www.w3.org/2000/svg" xmlns:xlink="http://www.w3.org/1999/xlink" width="16px" height="16px" x="0px" y="0px"
	 viewBox="0 0 16 16" style="enable-background:new 0 0 16 16;" xml:space="preserve">
<path d="M7.2,13.8l0.4-1.1l-2.6-1l-0.4,1.1L5,13.7l1-0.5l0.5,1L7.2,13.8z M8,4.7C7.9,4.6,7.8,4.6,7.7,4.6c0,0.1,0,0.1-0.1,0.2
	l-2.2,6.1c0,0-0.1,0.1,0,0.2c0.1,0.1,0.1,0.1,0.2,0.1c0.1,0,0.1,0,0.1-0.1L7.9,5C7.9,4.9,8,4.8,8,4.7z M6.8,3.4l4.8,1.7l-3.5,9.4
	l-3.2,1.6L3.4,13L6.8,3.4z M12.4,1.7c0.1,0.3,0.2,0.6,0.1,0.9l-0.7,1.9L7.1,2.7l0.7-1.8c0.2-0.3,0.3-0.5,0.6-0.6
	C8.7,0.1,9,0.1,9.3,0.2l2.6,1C12.1,1.2,12.3,1.5,12.4,1.7z"/>
</svg>
