<?xml version="1.0" encoding="utf-8"?>
<!-- Generator: Adobe Illustrator 14.0.0, SVG Export Plug-In . SVG Version: 6.00 Build 43363)  -->
<!DOCTYPE svg PUBLIC "-//W3C//DTD SVG 1.0//EN" "http://www.w3.org/TR/2001/REC-SVG-20010904/DTD/svg10.dtd">
<svg version="1.0"
	 id="svg3069" xmlns:dc="http://purl.org/dc/elements/1.1/" xmlns:rdf="http://www.w3.org/1999/02/22-rdf-syntax-ns#" xmlns:cc="http://creativecommons.org/ns#" xmlns:svg="http://www.w3.org/2000/svg"
	 xmlns="http://www.w3.org/2000/svg" xmlns:xlink="http://www.w3.org/1999/xlink" x="0px" y="0px" width="600px" height="525px"
	 viewBox="0 0 600 525" enable-background="new 0 0 600 525" xml:space="preserve">
<path fill="#FFFFFF" d="M597.6,499.6L313.8,8c-2.9-5-8.2-8-13.9-8C294.2,0,288.9,3.1,286,8L2.2,499.6c-2.9,5-2.9,11.101,0,16
	c2.899,5,8.199,8,13.899,8h567.6c5.7,0,11-3.1,13.9-8C600.5,510.6,600.5,504.5,597.6,499.6z M300,168.601
	c20.646,0,37.267,16.973,37.267,38.057l-11.019,133.313c-2.109,17.283-3.928,27.061-11.085,31.643
	c-4.63,2.098-9.755,3.289-15.163,3.289c-5.435,0-10.582-1.205-15.229-3.322c-7.117-4.595-8.914-14.365-11.019-31.609l-11.02-133.313
	C262.733,185.574,279.353,168.601,300,168.601z M300,472.523c-20.928,0-37.893-16.965-37.893-37.893
	c0-20.927,16.965-37.892,37.893-37.892c20.927,0,37.892,16.965,37.892,37.892C337.892,455.559,320.927,472.523,300,472.523z"/>
</svg>
