<?xml version="1.0" encoding="utf-8"?>
<!-- Generator: Adobe Illustrator 24.3.0, SVG Export Plug-In . SVG Version: 6.00 Build 0)  -->
<svg version="1.1" id="Layer_1" xmlns="http://www.w3.org/2000/svg" xmlns:xlink="http://www.w3.org/1999/xlink" x="0px" y="0px"
	 width="12px" height="12px" viewBox="0 0 12 12" style="enable-background:new 0 0 12 12;" xml:space="preserve">
<path d="M7.7,3.5c0,0.1-0.1,0.1-0.1,0.1C7.6,3.7,7.6,3.7,7.5,3.7c-0.1,0-0.1-0.1-0.1-0.1c0-0.1,0-0.2,0-0.2c0-0.2-0.2-0.5-0.5-0.5
	C6.5,2.8,6.3,2.7,6,2.7c-0.1,0-0.1-0.1-0.1-0.1S5.8,2.6,5.8,2.5c0-0.1,0.1-0.1,0.1-0.2c0-0.1,0.1-0.1,0.1-0.1c0.3,0,0.5,0.1,0.8,0.1
	c0.3,0.1,0.5,0.2,0.7,0.5C7.7,3,7.7,3.2,7.7,3.5z M9,3.5c0-0.4-0.1-0.7-0.3-1S8.3,1.9,8,1.7c-0.3-0.2-0.6-0.4-1-0.5S6.4,1,6,1
	S5.3,1.1,5,1.2S4.3,1.5,4,1.7C3.8,1.9,3.5,2.1,3.3,2.5S3,3.1,3,3.5c0,0.5,0.1,1,0.5,1.4c0.1,0.1,0.2,0.2,0.2,0.3
	C3.8,5.2,3.9,5.3,4,5.5C4.7,6.2,5,7,5.1,7.8h1.8C7,7,7.4,6.3,8,5.5c0.1-0.1,0.1-0.2,0.2-0.3C8.3,5.1,8.4,5,8.5,4.9
	C8.9,4.5,9,4.1,9,3.5z M10.1,3.5c0,0.8-0.3,1.5-0.8,2.1C9.1,5.9,8.9,6.1,8.7,6.3S8.4,6.8,8.3,7C8.1,7.3,8,7.6,8,7.9
	C8.3,8,8.3,8.2,8.3,8.5c0,0.2-0.1,0.4-0.1,0.5c0.1,0.1,0.1,0.3,0.1,0.5c0,0.3-0.1,0.5-0.3,0.7c0.1,0.1,0.1,0.2,0.1,0.4
	c0,0.2-0.1,0.4-0.3,0.5c-0.2,0.1-0.4,0.1-0.6,0.1c-0.1,0.2-0.3,0.5-0.5,0.5C6.5,11.9,6.3,12,6,12s-0.5-0.1-0.7-0.1
	c-0.2-0.1-0.4-0.3-0.5-0.5c-0.2,0-0.4-0.1-0.6-0.2c-0.2-0.1-0.3-0.3-0.3-0.5c0-0.1,0.1-0.3,0.1-0.4C3.9,10,3.8,9.8,3.8,9.5
	c0-0.1,0.1-0.4,0.1-0.5C3.8,8.9,3.8,8.7,3.8,8.5c0-0.3,0.1-0.5,0.4-0.7C4.1,7.5,4.1,7.3,3.8,7C3.8,6.8,3.5,6.5,3.5,6.3
	C3.4,6.1,3.2,5.9,2.9,5.6C2.3,4.9,2,4.3,2,3.5c0-0.5,0.1-1,0.3-1.4C2.6,1.7,2.9,1.3,3.2,1S4,0.4,4.5,0.3S5.6,0,6,0
	c0.5,0,1,0.1,1.5,0.3S8.4,0.8,8.8,1c0.4,0.3,0.7,0.7,0.9,1.1C9.9,2.5,10.1,3,10.1,3.5z"/>
</svg>
