<?xml version="1.0" encoding="utf-8"?>
<!-- Generator: Adobe Illustrator 24.1.3, SVG Export Plug-In . SVG Version: 6.00 Build 0)  -->
<svg version="1.0" id="Layer_1" xmlns="http://www.w3.org/2000/svg" xmlns:xlink="http://www.w3.org/1999/xlink" width="596.3px" height="168px" x="0px" y="0px"
	 viewBox="0 0 596.3 168" style="enable-background:new 0 0 596.3 168;" xml:space="preserve">
<linearGradient id="SVGID_1_" gradientUnits="userSpaceOnUse" x1="299.7691" y1="128.7993" x2="580.5025" y2="128.7993">
	<stop  offset="0" style="stop-color:#FFFFFF"/>
	<stop  offset="1" style="stop-color:#A6A6A6"/>
</linearGradient>
<rect x="299.8" y="110.3" style="fill:url(#SVGID_1_);" width="280.7" height="37"/>
<g>
	<path style="fill:#231F20;" d="M271.3,64.8v7.7h-25v6.2h20.2v7.7h-20.2v6.2h25v7.7h-32.8V64.8H271.3z"/>
	<path style="fill:#231F20;" d="M313.1,72.1v20.5h4v7.7h-32.2c-2,0-3.8-0.7-5.2-2.1c-1.4-1.4-2.1-3.1-2.1-5.2V72.1
		c0-2,0.7-3.8,2.1-5.2c1.4-1.4,3.1-2.1,5.2-2.1h20.8c2,0,3.8,0.7,5.2,2.1C312.4,68.3,313.1,70.1,313.1,72.1z M285.2,72.5v20.1h20.1
		V72.5H285.2z"/>
	<path style="fill:#231F20;" d="M330.3,64.8v27.8h20.1V64.8h7.7V93c0,2-0.7,3.7-2.1,5.1c-1.4,1.4-3.1,2.1-5.1,2.1h-20.9
		c-2,0-3.8-0.7-5.2-2.1c-1.4-1.4-2.1-3.1-2.1-5.2V64.8H330.3z"/>
	<path style="fill:#231F20;" d="M365.1,100.2V64.8h7.7v35.5H365.1z"/>
	<path style="fill:#231F20;" d="M377.3,64.8h28.1c2,0,3.7,0.7,5.2,2.1c1.4,1.4,2.2,3.1,2.2,5.1v9.2c0,2-0.7,3.7-2.2,5.1
		c-1.4,1.4-3.2,2.1-5.2,2.1l-20.5,0c0.1,0,0.1,0.1,0.1,0.3c-0.1,0-0.1,0-0.1,0v11.4h-7.6V64.8z M385,72.5v8.4h20.1v-8.4H385z"/>
	<path style="fill:#231F20;" d="M437.7,79.1l12-14.3h7.9v35.5h-7.7V76.4L437.7,91l-12.3-14.5v23.8h-7.6V64.8h7.9L437.7,79.1z"/>
	<path style="fill:#231F20;" d="M497.9,64.8v7.7h-25v6.2H493v7.7h-20.2v6.2h25v7.7h-32.8V64.8H497.9z"/>
	<path style="fill:#231F20;" d="M532,88.4V64.8h7.7v35.5h-7.9l-20-23.8v23.8h-7.6V64.8h7.9L532,88.4z"/>
	<path style="fill:#231F20;" d="M544.9,64.8h35.5v7.7h-13.9v27.8h-7.7V72.5h-13.9V64.8z"/>
</g>
<g>
	<path style="fill:#0065A8;" d="M287,123h13.7v2.1h-5.8v11.6h-2.1v-11.6H287V123z"/>
	<path style="fill:#0065A8;" d="M313.9,123h2.1v13.7h-2.1v-5.8h-9.9v5.8h-2.1V123h2.1v5.8h9.9V123z"/>
	<path style="fill:#0065A8;" d="M330.2,123v2.1h-10.5v3.8h8.4v2.1h-8.4v3.8h10.5v2.1h-12.6V123H330.2z"/>
	<path style="fill:#0065A8;" d="M336.8,123h12.6v2.1h-10.5v3.8h8.4v2.1h-8.4v5.8h-2.1V123z"/>
	<path style="fill:#0065A8;" d="M361.6,134.3V123h2.1v11.2c0,0.7-0.2,1.3-0.7,1.7c-0.5,0.5-1.1,0.7-1.8,0.7h-8.8
		c-0.7,0-1.3-0.2-1.8-0.7c-0.5-0.5-0.7-1.1-0.7-1.7V123h2.1v11.2c0,0.1,0,0.2,0.1,0.3c0.1,0.1,0.2,0.1,0.3,0.1h8.8
		c0.1,0,0.2,0,0.3-0.1C361.6,134.5,361.6,134.4,361.6,134.3z"/>
	<path style="fill:#0065A8;" d="M364.6,123h13.7v2.1h-5.8v11.6h-2.1v-11.6h-5.8V123z"/>
	<path style="fill:#0065A8;" d="M390.8,134.3V123h2.1v11.2c0,0.7-0.2,1.3-0.7,1.7c-0.5,0.5-1.1,0.7-1.8,0.7h-8.8
		c-0.7,0-1.3-0.2-1.7-0.7c-0.5-0.5-0.7-1.1-0.7-1.7V123h2.1v11.2c0,0.1,0,0.2,0.1,0.3c0.1,0.1,0.2,0.1,0.3,0.1h8.8
		c0.1,0,0.2,0,0.3-0.1C390.8,134.5,390.8,134.4,390.8,134.3z"/>
	<path style="fill:#0065A8;" d="M408.2,125.5v3.8c0,0.7-0.2,1.3-0.7,1.7c-0.5,0.5-1.1,0.7-1.8,0.7h-1.4l3.9,4.6v0.3h-2.4l-4.1-4.9
		H397c-0.1,0-0.2,0-0.4,0v4.9h-2.1v-13.7h11.2c0.7,0,1.3,0.2,1.8,0.7C407.9,124.3,408.2,124.9,408.2,125.5z M397,129.8h8.8
		c0.1,0,0.2,0,0.3-0.1c0.1-0.1,0.1-0.2,0.1-0.3v-3.8c0-0.1,0-0.2-0.1-0.3c-0.1-0.1-0.2-0.1-0.3-0.1H397c-0.1,0-0.2,0-0.3,0.1
		c-0.1,0.1-0.1,0.2-0.1,0.3v3.8c0,0.1,0,0.2,0.1,0.3C396.8,129.7,396.9,129.8,397,129.8z"/>
	<path style="fill:#0065A8;" d="M422.3,123v2.1h-10.5v3.8h8.4v2.1h-8.4v3.8h10.5v2.1h-12.6V123H422.3z"/>
	<path style="fill:#0065A8;" d="M428.9,136.7V123h2.1v13.7H428.9z"/>
	<path style="fill:#0065A8;" d="M444.2,134v-11h2.1v13.7h-2.4l-9.2-11v11h-2.1V123h2.4L444.2,134z"/>
	<path style="fill:#0065A8;" d="M453,123h12.6v2.1h-10.5v3.8h8.4v2.1h-8.4v5.8H453V123z"/>
	<path style="fill:#0065A8;" d="M468.7,123h8.8c0.7,0,1.3,0.2,1.8,0.7c0.5,0.5,0.7,1.1,0.7,1.8v8.8c0,0.7-0.2,1.3-0.7,1.7
		c-0.5,0.5-1.1,0.7-1.8,0.7h-8.8c-0.7,0-1.3-0.2-1.8-0.7c-0.5-0.5-0.7-1.1-0.7-1.7v-8.8c0-0.7,0.2-1.3,0.7-1.8
		C467.4,123.3,468,123,468.7,123z M468.7,134.7h8.8c0.1,0,0.2,0,0.3-0.1c0.1-0.1,0.1-0.2,0.1-0.3v-8.8c0-0.1,0-0.2-0.1-0.3
		c-0.1-0.1-0.2-0.1-0.3-0.1h-8.8c-0.1,0-0.2,0-0.3,0.1c-0.1,0.1-0.1,0.2-0.1,0.3v8.8c0,0.1,0,0.2,0.1,0.3
		C468.5,134.6,468.6,134.7,468.7,134.7z"/>
	<path style="fill:#0065A8;" d="M495.2,125.5v3.8c0,0.7-0.2,1.3-0.7,1.7c-0.5,0.5-1.1,0.7-1.8,0.7h-1.4l3.9,4.6v0.3h-2.4l-4.1-4.9
		H484c-0.1,0-0.2,0-0.4,0v4.9h-2.1v-13.7h11.2c0.7,0,1.3,0.2,1.8,0.7C495,124.3,495.2,124.9,495.2,125.5z M484,129.8h8.8
		c0.1,0,0.2,0,0.3-0.1c0.1-0.1,0.1-0.2,0.1-0.3v-3.8c0-0.1,0-0.2-0.1-0.3c-0.1-0.1-0.2-0.1-0.3-0.1H484c-0.1,0-0.2,0-0.3,0.1
		c-0.1,0.1-0.1,0.2-0.1,0.3v3.8c0,0.1,0,0.2,0.1,0.3C483.8,129.7,483.9,129.8,484,129.8z"/>
	<path style="fill:#0065A8;" d="M509.3,123v2.1h-10.5v3.8h8.4v2.1h-8.4v3.8h10.5v2.1h-12.6V123H509.3z"/>
	<path style="fill:#0065A8;" d="M524.4,125.5v0.8h-2.1v-0.8c0-0.1,0-0.2-0.1-0.3c-0.1-0.1-0.2-0.1-0.3-0.1h-8.8
		c-0.1,0-0.2,0-0.3,0.1c-0.1,0.1-0.1,0.2-0.1,0.3v2.9c0,0.1,0,0.2,0.1,0.3c0.1,0.1,0.2,0.1,0.3,0.1h8.8c0.7,0,1.3,0.2,1.8,0.7
		c0.5,0.5,0.7,1.1,0.7,1.8v2.9c0,0.7-0.2,1.3-0.7,1.7c-0.5,0.5-1.1,0.7-1.8,0.7h-8.8c-0.7,0-1.3-0.2-1.7-0.7
		c-0.5-0.5-0.7-1.1-0.7-1.7v-0.8h2.1v0.8c0,0.1,0,0.2,0.1,0.3c0.1,0.1,0.2,0.1,0.3,0.1h8.8c0.1,0,0.2,0,0.3-0.1
		c0.1-0.1,0.1-0.2,0.1-0.3v-2.9c0-0.1,0-0.2-0.1-0.3c-0.1-0.1-0.2-0.1-0.3-0.1h-8.8c-0.7,0-1.3-0.2-1.7-0.7
		c-0.5-0.5-0.7-1.1-0.7-1.8v-2.9c0-0.7,0.2-1.3,0.7-1.8c0.5-0.5,1.1-0.7,1.7-0.7h8.8c0.7,0,1.3,0.2,1.8,0.7
		C524.2,124.2,524.4,124.8,524.4,125.5z"/>
	<path style="fill:#0065A8;" d="M525.3,123H539v2.1h-5.8v11.6h-2.1v-11.6h-5.8V123z"/>
	<path style="fill:#0065A8;" d="M553.7,125.5v3.8c0,0.7-0.2,1.3-0.7,1.7c-0.5,0.5-1.1,0.7-1.8,0.7h-1.4l3.9,4.6v0.3h-2.4l-4.1-4.9
		h-4.7c-0.1,0-0.2,0-0.4,0v4.9H540v-13.7h11.2c0.7,0,1.3,0.2,1.8,0.7C553.4,124.3,553.7,124.9,553.7,125.5z M542.4,129.8h8.8
		c0.1,0,0.2,0,0.3-0.1c0.1-0.1,0.1-0.2,0.1-0.3v-3.8c0-0.1,0-0.2-0.1-0.3c-0.1-0.1-0.2-0.1-0.3-0.1h-8.8c-0.1,0-0.2,0-0.3,0.1
		c-0.1,0.1-0.1,0.2-0.1,0.3v3.8c0,0.1,0,0.2,0.1,0.3C542.2,129.7,542.3,129.8,542.4,129.8z"/>
	<path style="fill:#0065A8;" d="M566.7,123h2.4l-6.3,8.6v5.1h-2.1v-5.1l-6.3-8.6h2.4l4.9,6.2L566.7,123z"/>
</g>
<path style="fill-rule:evenodd;clip-rule:evenodd;fill:#010101;" d="M84.1,117.6l23.5,0.1c2.7,0,5.1-1.3,5.6-4.1l12.2-67.1
	c0.1-0.5,0.3-1.8,0-2.2c-0.4-0.5-2.4-0.6-2.9-0.6H97.5L84.1,117.6z M161.3,126.2c-6.1,9.9-17.5,16.9-29,16.9H19.3l4.7-6
	c2.9-3.7,5.6-9.1,6.4-13.7l16.5-89.9c0.5-2.9,0-7.5-1.1-10.3l-2-5.1l110-0.1c11.3,0,20.6,6.9,23.7,16.6c6-10,17.1-16.6,29.1-16.6
	h82.4l-1.4,32.7l-5.3-3.1c-4.5-2.6-10.1-3.7-15.3-3.7L233.8,44c-4.3,0-8.7,4-9.5,8.2l-10.6,58.7c-0.7,3.8,1.1,6.8,5.2,6.8l33.3-0.1
	c6,0,13.5-1.5,19.2-3.5l7.2-2.5l-10.6,31.6h-83C172.7,143.1,164,136.2,161.3,126.2z"/>
<path style="fill-rule:evenodd;clip-rule:evenodd;fill:#010101;" d="M80.6,119.9L104,120c2.7,0,5.1-1.3,5.6-4.1l12.2-67.1
	c0.1-0.5,0.3-1.8,0-2.2c-0.4-0.5-2.4-0.6-2.9-0.6H94L80.6,119.9z M157.8,128.5c-6.1,9.9-17.5,16.9-29,16.9H15.7l4.7-6
	c2.9-3.7,5.6-9.1,6.4-13.7l16.5-89.9c0.5-2.9,0-7.5-1.1-10.4l-2-5.1l110-0.1c11.3,0,20.6,6.9,23.7,16.6c6-10,17.1-16.6,29.1-16.6
	h82.4L284.2,53l-5.3-3.1c-4.5-2.6-10.1-3.7-15.3-3.7l-33.3,0.1c-4.3,0-8.7,4-9.5,8.2l-10.6,58.7c-0.7,3.8,1.1,6.8,5.2,6.8l33.3-0.1
	c6,0,13.5-1.5,19.2-3.5l7.2-2.5l-10.6,31.6h-83C169.2,145.4,160.5,138.6,157.8,128.5z"/>
<path style="fill-rule:evenodd;clip-rule:evenodd;fill:#FFFFFF;" d="M81.1,120l26.4,0.1c3.9,0,7.3-2.2,8-6.1l12.2-67.1
	c0.8-4.3-1.1-5.7-5.4-5.7H95.5L81.1,120z M170.3,76l-7.3,39.1c-2.6,13.9-16.6,25.5-30.7,25.5H24.2l1.6-2.1c3.1-4,6-9.8,6.9-14.8
	l16.5-89.9c0.6-3.4,0-8.4-1.2-11.7l-0.7-1.7l106.5-0.1c13.5,0,23.8,10.8,22.3,24.1c3.3-13.8,16.3-24.1,30.6-24.1h79.9l-1.1,26.1
	l-1.8-1.1c-4.9-2.8-10.9-4.1-16.5-4.1l-33.3,0.1c-5.5,0-10.9,4.8-11.9,10.2l-10.6,58.7c-1,5.4,2,9.7,7.6,9.7l33.3-0.1
	c6.3,0,14.1-1.5,20-3.6l2.5-0.9l-8.4,25.1H185c-15.4,0-24.4-11.5-21.6-26.5L170.3,76z"/>
<path style="fill-rule:evenodd;clip-rule:evenodd;fill:#0166A9;" d="M79.6,121.3l14.8-81.4h27.9c5.6,0,7.4,2.6,6.6,7.2l-12.2,67.1
	c-0.8,4.2-4.4,7.2-9.3,7.2L79.6,121.3z M26.9,139.3L26.9,139.3h105.5c13.5,0,27-11.2,29.5-24.4l12.8-69c2.4-12.8-7-24.2-20.8-24.2
	L49.2,21.8c1.5,3.9,1.9,9.2,1.3,12.4L34,124C33.2,128.7,30.4,134.8,26.9,139.3z M265.3,139.3L265.3,139.3l7.3-21.8
	c-6.5,2.3-14.7,3.7-20.4,3.7l-33.3,0.1c-6.1,0-10-4.7-8.9-11.2l10.6-58.7c1.1-6.3,7.3-11.2,13.1-11.2l33.3-0.1
	c6.7,0,12.7,1.7,17.2,4.2l1-22.7h-78.5c-14.2,0-27.1,10.6-29.6,24.5l-12.4,68.1c-2.7,14.7,6.3,25,20.4,25H265.3z"/>
<g>
</g>
<g>
</g>
<g>
</g>
<g>
</g>
<g>
</g>
<g>
</g>
</svg>
