<?xml version="1.0" encoding="utf-8"?>
<!-- Generator: Adobe Illustrator 24.1.3, SVG Export Plug-In . SVG Version: 6.00 Build 0)  -->
<svg version="1.0" id="Layer_1" xmlns="http://www.w3.org/2000/svg" xmlns:xlink="http://www.w3.org/1999/xlink" width="285px" height="151.5px" x="0px" y="0px"
	 viewBox="0 0 285 151.5" style="enable-background:new 0 0 285 151.5;" xml:space="preserve">
<g>
	<path style="fill:#FFFFFF;" d="M26.5,90.1h13.1v2.1H28.6v3.9h8.8v2.1h-8.8v6.1h-2.1V90.1z"/>
	<path style="fill:#FFFFFF;" d="M43.6,90.1h9.1c0.7,0,1.3,0.3,1.8,0.8c0.5,0.5,0.8,1.1,0.8,1.8v11.7h-2.1v-5h-10v5H41V92.7
		c0-0.7,0.3-1.3,0.8-1.8C42.2,90.4,42.9,90.1,43.6,90.1z M43.1,97.2h10v-4.5c0-0.1,0-0.2-0.1-0.3c-0.1-0.1-0.2-0.1-0.3-0.1h-9.1
		c-0.1,0-0.2,0-0.3,0.1s-0.1,0.2-0.1,0.3V97.2z"/>
	<path style="fill:#FFFFFF;" d="M57.7,104.4V90.1h2.1v12.1H72v2.1H57.7z"/>
	<path style="fill:#FFFFFF;" d="M87.5,92.2H75.9c-0.1,0-0.2,0-0.3,0.1c-0.1,0.1-0.1,0.2-0.1,0.3v9.1c0,0.1,0,0.2,0.1,0.3
		c0.1,0.1,0.2,0.1,0.3,0.1h11.6v2.1H75.9c-0.7,0-1.3-0.3-1.8-0.8s-0.8-1.1-0.8-1.8v-9.1c0-0.7,0.3-1.3,0.8-1.8
		c0.5-0.5,1.1-0.8,1.8-0.8h11.6V92.2z"/>
	<path style="fill:#FFFFFF;" d="M92.3,90.1h9.1c0.7,0,1.3,0.3,1.8,0.8c0.5,0.5,0.8,1.1,0.8,1.8v9.1c0,0.7-0.3,1.3-0.8,1.8
		s-1.1,0.8-1.8,0.8h-9.1c-0.7,0-1.3-0.3-1.8-0.8c-0.5-0.5-0.8-1.1-0.8-1.8v-9.1c0-0.7,0.3-1.3,0.8-1.8C91,90.4,91.6,90.1,92.3,90.1z
		 M92.3,102.2h9.1c0.1,0,0.2,0,0.3-0.1c0.1-0.1,0.1-0.2,0.1-0.3v-9.1c0-0.1,0-0.2-0.1-0.3c-0.1-0.1-0.2-0.1-0.3-0.1h-9.1
		c-0.1,0-0.2,0-0.3,0.1s-0.1,0.2-0.1,0.3v9.1c0,0.1,0,0.2,0.1,0.3C92.1,102.2,92.2,102.2,92.3,102.2z"/>
	<path style="fill:#FFFFFF;" d="M118.4,101.5V90.1h2.1v14.2H118L108.5,93v11.4h-2.1V90.1h2.5L118.4,101.5z"/>
	<path style="fill:#FFFFFF;" d="M129,90.1H142v2.1h-10.9v3.9h8.8v2.1h-8.8v6.1H129V90.1z"/>
	<path style="fill:#FFFFFF;" d="M146,90.1h9.1c0.7,0,1.3,0.3,1.8,0.8c0.5,0.5,0.8,1.1,0.8,1.8v9.1c0,0.7-0.3,1.3-0.8,1.8
		s-1.1,0.8-1.8,0.8H146c-0.7,0-1.3-0.3-1.8-0.8c-0.5-0.5-0.8-1.1-0.8-1.8v-9.1c0-0.7,0.3-1.3,0.8-1.8
		C144.6,90.4,145.2,90.1,146,90.1z M146,102.2h9.1c0.1,0,0.2,0,0.3-0.1c0.1-0.1,0.1-0.2,0.1-0.3v-9.1c0-0.1,0-0.2-0.1-0.3
		c-0.1-0.1-0.2-0.1-0.3-0.1H146c-0.1,0-0.2,0-0.3,0.1s-0.1,0.2-0.1,0.3v9.1c0,0.1,0,0.2,0.1,0.3C145.7,102.2,145.8,102.2,146,102.2z
		"/>
	<path style="fill:#FFFFFF;" d="M174.2,92.7v4c0,0.7-0.3,1.3-0.8,1.8c-0.5,0.5-1.1,0.8-1.8,0.8h-1.4l4,4.8v0.3h-2.5l-4.3-5.1h-4.9
		c-0.1,0-0.3,0-0.4,0v5.1H160V90.1h11.7c0.7,0,1.3,0.3,1.8,0.8C174,91.4,174.2,92,174.2,92.7z M162.5,97.1h9.1c0.1,0,0.2,0,0.3-0.1
		c0.1-0.1,0.1-0.2,0.1-0.3v-4c0-0.1,0-0.2-0.1-0.3c-0.1-0.1-0.2-0.1-0.3-0.1h-9.1c-0.1,0-0.2,0-0.3,0.1c-0.1,0.1-0.1,0.2-0.1,0.3v4
		c0,0.1,0,0.2,0.1,0.3C162.3,97.1,162.4,97.1,162.5,97.1z"/>
	<path style="fill:#FFFFFF;" d="M189.6,90.1v2.1h-10.9v3.9h8.8v2.1h-8.8v3.9h10.9v2.1h-13.1V90.1H189.6z"/>
	<path style="fill:#FFFFFF;" d="M206,92.7v0.8h-2.1v-0.8c0-0.1,0-0.2-0.1-0.3c-0.1-0.1-0.2-0.1-0.3-0.1h-9.1c-0.1,0-0.2,0-0.3,0.1
		s-0.1,0.2-0.1,0.3v3c0,0.1,0,0.2,0.1,0.3c0.1,0.1,0.2,0.1,0.3,0.1h9.1c0.7,0,1.3,0.3,1.8,0.8c0.5,0.5,0.8,1.1,0.8,1.8v3
		c0,0.7-0.3,1.3-0.8,1.8s-1.1,0.8-1.8,0.8h-9.1c-0.7,0-1.3-0.3-1.8-0.8c-0.5-0.5-0.8-1.1-0.8-1.8V101h2.1v0.8c0,0.1,0,0.2,0.1,0.3
		c0.1,0.1,0.2,0.1,0.3,0.1h9.1c0.1,0,0.2,0,0.3-0.1c0.1-0.1,0.1-0.2,0.1-0.3v-3c0-0.1,0-0.2-0.1-0.3c-0.1-0.1-0.2-0.1-0.3-0.1h-9.1
		c-0.7,0-1.3-0.3-1.8-0.8c-0.5-0.5-0.8-1.1-0.8-1.8v-3c0-0.7,0.3-1.3,0.8-1.8c0.5-0.5,1.1-0.8,1.8-0.8h9.1c0.7,0,1.3,0.3,1.8,0.8
		C205.8,91.4,206,92,206,92.7z"/>
	<path style="fill:#FFFFFF;" d="M207.6,90.1h14.2v2.1h-6.1v12.1h-2.1V92.2h-6.1V90.1z"/>
	<path style="fill:#FFFFFF;" d="M237.8,92.7v4c0,0.7-0.3,1.3-0.8,1.8c-0.5,0.5-1.1,0.8-1.8,0.8h-1.4l4,4.8v0.3h-2.5l-4.3-5.1h-4.9
		c-0.1,0-0.3,0-0.4,0v5.1h-2.1V90.1h11.7c0.7,0,1.3,0.3,1.8,0.8C237.5,91.4,237.8,92,237.8,92.7z M226.1,97.1h9.1
		c0.1,0,0.2,0,0.3-0.1c0.1-0.1,0.1-0.2,0.1-0.3v-4c0-0.1,0-0.2-0.1-0.3c-0.1-0.1-0.2-0.1-0.3-0.1h-9.1c-0.1,0-0.2,0-0.3,0.1
		c-0.1,0.1-0.1,0.2-0.1,0.3v4c0,0.1,0,0.2,0.1,0.3C225.9,97.1,226,97.1,226.1,97.1z"/>
	<path style="fill:#FFFFFF;" d="M252,90.1h2.5L248,99v5.3h-2.1V99l-6.6-8.9h2.5l5.1,6.5L252,90.1z"/>
</g>
<g>
	<path style="fill:#FFFFFF;" d="M47.3,114.8v4.4H29.7v5.4h14.1v4.4H29.7v5.4h17.5v4.4h-22v-23.9H47.3z"/>
	<path style="fill:#FFFFFF;" d="M75.1,134.3H78v4.4H55.8c-1.3,0-2.4-0.4-3.3-1.3s-1.3-2-1.3-3.3v-14.7c0-1.3,0.4-2.4,1.3-3.3
		s2-1.3,3.3-1.3h14.6c1.3,0,2.4,0.4,3.3,1.3c0.9,0.9,1.4,2,1.4,3.3V134.3z M55.8,134.3h14.6c0.2,0,0.2-0.1,0.2-0.2v-14.7
		c0-0.2-0.1-0.2-0.2-0.2H55.8c-0.2,0-0.2,0.1-0.2,0.2V134C55.6,134.2,55.7,134.3,55.8,134.3z"/>
	<path style="fill:#FFFFFF;" d="M100.7,134v-19.3h4.4V134c0,1.3-0.5,2.4-1.4,3.3c-0.9,0.9-2,1.3-3.3,1.3H85.8
		c-1.3,0-2.4-0.4-3.3-1.3s-1.3-2-1.3-3.3v-19.3h4.4V134c0,0.2,0.1,0.2,0.2,0.2h14.7C100.6,134.3,100.7,134.2,100.7,134z"/>
	<path style="fill:#FFFFFF;" d="M109.4,138.6v-23.9h4.4v23.9H109.4z"/>
	<path style="fill:#FFFFFF;" d="M117.4,114.8h19.2c1.3,0,2.4,0.5,3.3,1.4c0.9,0.9,1.4,2,1.4,3.3v6.4c0,1.3-0.5,2.3-1.4,3.3
		c-0.9,0.9-2,1.4-3.3,1.4l-14.8,0l-0.1,0v8.2h-4.4V114.8z M136.8,125.8v-6.4c0-0.2-0.1-0.2-0.2-0.2H122c-0.2,0-0.2,0.1-0.2,0.2v6.4
		c0,0.2,0.1,0.2,0.2,0.2h14.6C136.8,126.1,136.8,126,136.8,125.8z"/>
	<path style="fill:#FFFFFF;" d="M157.7,125.1l8.7-10.3h4.8v23.9h-4.4v-17.5l-9.1,10.8l-9.1-10.8v17.5h-4.4v-23.9h4.8L157.7,125.1z"
		/>
	<path style="fill:#FFFFFF;" d="M197.7,114.8v4.4h-17.5v5.4h14.1v4.4h-14.1v5.4h17.5v4.4h-22v-23.9H197.7z"/>
	<path style="fill:#FFFFFF;" d="M221.2,132.3v-17.5h4.4v23.9h-4.8l-14.7-17.5v17.5h-4.4v-23.9h4.8L221.2,132.3z"/>
	<path style="fill:#FFFFFF;" d="M228.8,114.8h23.9v4.4H243v19.5h-4.4v-19.5h-9.8V114.8z"/>
</g>
<g>
	<path style="fill:#FFFFFF;" d="M161.7,79.9v-3.5h0.6v4.3h-0.8l-2.9-3.5v3.5H158v-4.3h0.8L161.7,79.9z"/>
	<path style="fill:#FFFFFF;" d="M166.9,76.4v0.6h-3.3v1.2h2.7v0.6h-2.7v1.2h3.3v0.6h-4v-4.3H166.9z"/>
	<path style="fill:#FFFFFF;" d="M173.2,76.4h0.7l-1.6,4.3h-0.5l-1.2-3.4l-1.2,3.4l0,0l0,0h-0.5l-1.6-4.3h0.7l1.1,3.2l1.1-3.2h0.7
		l1.1,3.2L173.2,76.4z"/>
	<path style="fill:#FFFFFF;" d="M175.9,77.1v-0.6h4.3v0.8l-3.5,2.9h3.5v0.6h-4.3V80l3.5-2.9H175.9z"/>
	<path style="fill:#FFFFFF;" d="M184.8,76.4v0.6h-3.3v1.2h2.7v0.6h-2.7v1.2h3.3v0.6h-4v-4.3H184.8z"/>
	<path style="fill:#FFFFFF;" d="M186.1,76.4h2.8c0.2,0,0.4,0.1,0.6,0.2c0.2,0.2,0.2,0.3,0.2,0.6v3.5H189v-1.5h-3v1.5h-0.7v-3.5
		c0-0.2,0.1-0.4,0.2-0.6S185.9,76.4,186.1,76.4z M185.9,78.6h3v-1.4c0,0,0-0.1,0-0.1c0,0-0.1,0-0.1,0h-2.8c0,0-0.1,0-0.1,0
		c0,0,0,0.1,0,0.1V78.6z"/>
	<path style="fill:#FFFFFF;" d="M190.2,80.7v-4.3h0.6v3.7h3.7v0.6H190.2z"/>
	<path style="fill:#FFFFFF;" d="M195.6,76.4h2.8c0.2,0,0.4,0.1,0.6,0.2c0.2,0.2,0.2,0.3,0.2,0.6v3.5h-0.7v-1.5h-3v1.5h-0.7v-3.5
		c0-0.2,0.1-0.4,0.2-0.6S195.3,76.4,195.6,76.4z M195.4,78.6h3v-1.4c0,0,0-0.1,0-0.1c0,0-0.1,0-0.1,0h-2.8c0,0-0.1,0-0.1,0
		c0,0,0,0.1,0,0.1V78.6z"/>
	<path style="fill:#FFFFFF;" d="M203.4,79.9v-3.5h0.6v4.3h-0.8l-2.9-3.5v3.5h-0.6v-4.3h0.8L203.4,79.9z"/>
	<path style="fill:#FFFFFF;" d="M204.6,76.4h3.5c0.2,0,0.4,0.1,0.6,0.2c0.2,0.2,0.2,0.3,0.2,0.6V80c0,0.2-0.1,0.4-0.2,0.6
		c-0.2,0.2-0.3,0.2-0.6,0.2h-3.5V76.4z M208.2,80v-2.8c0,0,0-0.1,0-0.1c0,0-0.1,0-0.1,0h-2.8c0,0-0.1,0-0.1,0c0,0,0,0.1,0,0.1V80
		c0,0,0,0.1,0,0.1c0,0,0.1,0,0.1,0h2.8C208.2,80.1,208.2,80.1,208.2,80C208.2,80,208.2,80,208.2,80z"/>
	<path style="fill:#FFFFFF;" d="M213.5,78.4l1.7-2h0.8v4.3h-0.7v-3.5l-1.8,2.1l-1.8-2.1v3.5h-0.6v-4.3h0.8L213.5,78.4z"/>
	<path style="fill:#FFFFFF;" d="M217.3,76.4h2.8c0.2,0,0.4,0.1,0.6,0.2c0.2,0.2,0.2,0.3,0.2,0.6v3.5h-0.7v-1.5h-3v1.5h-0.7v-3.5
		c0-0.2,0.1-0.4,0.2-0.6S217.1,76.4,217.3,76.4z M217.2,78.6h3v-1.4c0,0,0-0.1,0-0.1c0,0-0.1,0-0.1,0h-2.8c0,0-0.1,0-0.1,0
		c0,0,0,0.1,0,0.1V78.6z"/>
	<path style="fill:#FFFFFF;" d="M221.5,76.4h3.5c0.2,0,0.4,0.1,0.6,0.2c0.2,0.2,0.2,0.3,0.2,0.6V80c0,0.2-0.1,0.4-0.2,0.6
		c-0.2,0.2-0.3,0.2-0.6,0.2h-3.5V76.4z M225.1,80v-2.8c0,0,0-0.1,0-0.1c0,0-0.1,0-0.1,0h-2.8c0,0-0.1,0-0.1,0c0,0,0,0.1,0,0.1V80
		c0,0,0,0.1,0,0.1c0,0,0.1,0,0.1,0h2.8C225,80.1,225.1,80.1,225.1,80C225.1,80,225.1,80,225.1,80z"/>
	<path style="fill:#FFFFFF;" d="M230.3,76.4v0.6H227v1.2h2.7v0.6H227v1.2h3.3v0.6h-4v-4.3H230.3z"/>
</g>
<g>
	<path style="fill:#0A5AA8;" d="M30,72.1C28,67.5,29.9,60.3,30.3,59l0.1-0.2l21.2-45h65.9l-9.4,17.4H75l-0.7,1.5h34.2l-8.7,17.4
		H65.8c-1.2,2.8-3.3,7.8-4.2,9.9c-1,2.2-1,4.2-1,4.2l0,2.4l-2.3,0.7l-27.1,7.5L30,72.1z"/>
	<path style="fill:#FFFFFF;" d="M112.1,16.9l-5.9,10.9H73l-3.8,7.9h34.1l-5.5,10.9H63.7c0,0-3.8,8.9-5,11.9
		c-1.3,2.9-1.3,5.5-1.3,5.5L33,70.8c-1.7-3.8,0.4-10.9,0.4-10.9l20.2-42.9H112.1 M122.9,10.5h-10.8H53.6h-4.1l-1.7,3.7L27.6,57.1
		l-0.2,0.4L27.2,58c-0.7,2.2-2.6,9.9-0.1,15.4l2.3,5.1l5.3-1.5l24.4-6.7l4.9-1.3l-0.2-4.8c0-0.3,0.1-1.5,0.7-3
		c0.7-1.7,2.2-5.2,3.4-8h29.8h4l1.8-3.6l5.5-10.9l4.7-9.3h-0.9l5-9.3L122.9,10.5L122.9,10.5z"/>
</g>
<g>
	<path style="fill:#0A5AA8;" d="M97.8,72.1c-2.1-4.6-0.1-11.8,0.3-13.2l0.1-0.2l21.2-45h65.9l-9.4,17.4h-33.1l-0.7,1.5h34.2
		l-8.7,17.4h-33.9c-1.2,2.8-3.3,7.8-4.2,9.9c-1,2.2-1,4.2-1,4.2v2.5L99,74.7L97.8,72.1z"/>
	<path style="fill:#FFFFFF;" d="M179.9,16.9L174,27.9h-33.2l-3.8,7.9h34.1l-5.5,10.9h-34.1c0,0-3.8,8.9-5,11.9
		c-1.3,2.9-1.3,5.5-1.3,5.5l-24.4,6.7c-1.7-3.8,0.4-10.9,0.4-10.9l20.2-42.9H179.9 M190.7,10.5h-10.8h-58.5h-4.1l-1.7,3.7L95.4,57.1
		l-0.2,0.4L95,58c-0.7,2.2-2.6,9.9-0.1,15.4l2.3,5.1l5.4-1.5l24.4-6.7l4.9-1.3l-0.2-4.8c0-0.3,0.1-1.5,0.7-3c0.7-1.6,2.2-5.2,3.4-8
		h29.8h4l1.8-3.6l5.5-10.9l4.7-9.3h-0.9l5-9.3L190.7,10.5L190.7,10.5z"/>
</g>
<g>
	<polygon style="fill:#0A5AA8;" points="163.4,66.9 187.4,13.7 253.4,13.7 244,31.1 210.8,31.1 210.4,31.8 235.8,31.8 227.1,49.2 
		201.4,49.2 200.7,50.3 235.1,50.3 226.8,66.9 	"/>
	<path style="fill:#FFFFFF;" d="M248,16.9l-5.9,10.9h-33.2l-3.8,7.1h25.5l-5.5,10.9h-25.5l-4.5,7.6h34.8l-5,10.1h-56.4l21-46.7H248
		 M258.8,10.5H248h-58.5h-4.2l-1.7,3.8l-21,46.7l-4.1,9.1h10h56.4h4l1.8-3.6l5-10.1l4.7-9.3h-8.6l4.6-9.2l1.8-3.6h4h3.9l1.8-3.4
		l5.9-10.9L258.8,10.5L258.8,10.5z"/>
</g>
<g>
	<path style="fill:#005CB9;" d="M31.8,71.3c-1.9-4.2,0.3-11.5,0.4-11.8l0-0.1l20.6-43.8h61.5L107,29.2H73.8l-2.6,5.3h34.1L98.6,48
		h-34c-1,2.2-3.7,8.7-4.7,11.1c-1.1,2.6-1.2,4.9-1.2,5l0,1l-0.9,0.3l-25.5,7L31.8,71.3z"/>
	<path style="fill:#231F20;" d="M112.1,16.9l-5.9,10.9H73l-3.8,7.9h34.1l-5.5,10.9H63.7c0,0-3.8,8.9-5,11.9
		c-1.3,2.9-1.3,5.5-1.3,5.5L33,70.8c-1.7-3.8,0.4-10.9,0.4-10.9l20.2-42.9H112.1 M116.4,14.4h-4.3H53.6H52l-0.7,1.5L31.1,58.8
		L31,58.9l-0.1,0.2c-0.2,0.8-2.3,8.2-0.3,12.7l0.9,2l2.1-0.6l24.4-6.7L60,66v-2c0,0,0-2.1,1.1-4.5c0.9-2.2,3.2-7.6,4.4-10.3h32.4
		h1.6l0.7-1.4l5.5-10.9l1.9-3.7h-4.2h-30l1.3-2.7h31.6h1.5l0.7-1.4l5.9-10.9L116.4,14.4L116.4,14.4z"/>
</g>
<g>
	<path style="fill:#005CB9;" d="M99.6,71.3c-1.9-4.2,0.3-11.5,0.4-11.8l0-0.1l20.6-43.8h61.5l-7.3,13.5h-33.2l-2.6,5.3h34.1
		L166.4,48h-34c-1,2.2-3.7,8.7-4.7,11.1c-1.1,2.6-1.2,4.9-1.2,5l0,1l-0.9,0.3l-25.5,7L99.6,71.3z"/>
	<path style="fill:#231F20;" d="M179.9,16.9L174,27.9h-33.2l-3.8,7.9h34.1l-5.5,10.9h-34.1c0,0-3.8,8.9-5,11.9
		c-1.3,2.9-1.3,5.5-1.3,5.5l-24.4,6.7c-1.7-3.8,0.4-10.9,0.4-10.9l20.2-42.9H179.9 M184.2,14.4h-4.3h-58.5h-1.6l-0.7,1.5L98.9,58.8
		l-0.1,0.2l-0.1,0.2c-0.2,0.8-2.3,8.2-0.3,12.7l0.9,2l2.1-0.6l24.4-6.7l1.9-0.5v-2c0,0,0-2.1,1.1-4.5c0.9-2.2,3.2-7.6,4.4-10.3h32.4
		h1.6l0.7-1.4l5.5-10.9l1.9-3.7h-4.2h-30l1.3-2.7H174h1.5l0.7-1.4l5.9-10.9L184.2,14.4L184.2,14.4z"/>
</g>
<g>
	<polygon style="fill:#005CB9;" points="166.4,64.9 188.6,15.7 250.1,15.7 242.8,29.2 209.6,29.2 207.2,33.7 232.6,33.7 225.9,47.2 
		200.3,47.2 197.3,52.3 231.9,52.3 225.6,64.9 	"/>
	<path style="fill:#231F20;" d="M248,16.9l-5.9,10.9h-33.2l-3.8,7.1h25.5l-5.5,10.9h-25.5l-4.5,7.6h34.8l-5,10.1h-56.4l21-46.7H248
		 M252.3,14.4H248h-58.5h-1.7l-0.7,1.5l-21,46.7l-1.6,3.6h4h56.4h1.6l0.7-1.4l5-10.1L234,51h-4.2h-30.2l1.5-2.4h24h1.6l0.7-1.4
		l5.5-10.9l1.9-3.7h-4.2h-21.2l1-2h31.7h1.5l0.7-1.4l5.9-10.9L252.3,14.4L252.3,14.4z"/>
</g>
<g>
	<g>
		<g>
			<g>
				<polygon style="fill:#ED3538;" points="222.6,30 218.5,30.4 221.1,27.3 219.6,23.7 223.2,25.1 226.1,22.6 226,26.4 229.5,28.4 
					225.7,29.5 224.8,33.4 				"/>
				<path style="fill:#231F20;" d="M225.8,23.3l-0.1,3.3l3,1.8l-3.3,0.9l-0.7,3.4l-2-3l-3.5,0.3l2.2-2.7l-1.3-3.1l3.2,1.2
					L225.8,23.3 M226.5,21.9l-1.1,0.9l-2.2,1.9l-2.8-1l-1.3-0.5l0.6,1.3l1.1,2.7l-2,2.4l-0.9,1.1l1.5-0.1l3.1-0.3l1.8,2.7l0.8,1.2
					l0.3-1.4l0.7-3.1l2.9-0.8l1.4-0.4l-1.3-0.7l-2.7-1.6l0.1-2.9L226.5,21.9L226.5,21.9z"/>
			</g>
		</g>
	</g>
	<g>
		<g>
			<g>
				<polygon style="fill:#ED3538;" points="222.6,29.9 218.9,30.2 221.3,27.3 219.9,24 223.3,25.2 226,23 225.9,26.5 229.1,28.4 
					225.5,29.3 224.7,33 				"/>
				<path style="fill:#FFFFFF;" d="M225.8,23.3l-0.1,3.3l3,1.8l-3.3,0.9l-0.7,3.4l-2-3l-3.5,0.3l2.2-2.7l-1.3-3.1l3.2,1.2
					L225.8,23.3 M226.1,22.6l-0.5,0.4l-2.4,2l-3-1.1l-0.7-0.2l0.3,0.7l1.2,2.9l-2.1,2.5l-0.5,0.6l0.7-0.1l3.3-0.3l1.9,2.8l0.4,0.6
					l0.2-0.7l0.7-3.2l3.1-0.9l0.7-0.2l-0.6-0.4l-2.8-1.7l0.1-3.1L226.1,22.6L226.1,22.6z"/>
			</g>
		</g>
	</g>
</g>
<g>
	<g>
		<g>
			<g>
				<polygon style="fill:#ED3538;" points="250.2,18 246.2,18.3 248.7,15.2 247.2,11.7 250.9,13 253.8,10.6 253.7,14.3 257.1,16.4 
					253.3,17.4 252.4,21.4 				"/>
				<path style="fill:#231F20;" d="M253.4,11.2l-0.1,3.3l3,1.8l-3.3,0.9l-0.7,3.4l-1.9-3l-3.5,0.3l2.2-2.7l-1.3-3.1l3.2,1.2
					L253.4,11.2 M254.1,9.9l-1.1,0.9l-2.2,1.9l-2.8-1l-1.3-0.5l0.6,1.3l1.1,2.7l-2,2.4l-0.9,1.1l1.5-0.1l3.1-0.3l1.7,2.7l0.8,1.2
					l0.3-1.4l0.7-3.1l2.9-0.8l1.4-0.4l-1.3-0.7l-2.7-1.6l0.1-2.9L254.1,9.9L254.1,9.9z"/>
			</g>
		</g>
	</g>
	<g>
		<g>
			<g>
				<polygon style="fill:#ED3538;" points="250.3,17.8 246.5,18.1 248.9,15.2 247.5,11.9 250.9,13.2 253.6,10.9 253.5,14.4 
					256.7,16.3 253.2,17.3 252.4,21 				"/>
				<path style="fill:#FFFFFF;" d="M253.4,11.2l-0.1,3.3l3,1.8l-3.3,0.9l-0.7,3.4l-1.9-3l-3.5,0.3l2.2-2.7l-1.3-3.1l3.2,1.2
					L253.4,11.2 M253.8,10.6l-0.5,0.4l-2.4,2l-3-1.1l-0.7-0.2l0.3,0.7l1.2,2.9l-2.1,2.5l-0.5,0.6l0.7-0.1l3.3-0.3l1.8,2.8l0.4,0.6
					l0.2-0.7l0.7-3.3l3.1-0.9l0.7-0.2l-0.6-0.4l-2.8-1.7l0.1-3.1L253.8,10.6L253.8,10.6z"/>
			</g>
		</g>
	</g>
</g>
<g>
	<g>
		<g>
			<g>
				<polygon style="fill:#ED3538;" points="245.8,38.3 241.8,38.6 244.4,35.5 242.9,31.9 246.5,33.3 249.4,30.9 249.3,34.6 
					252.8,36.7 249,37.7 248.1,41.7 				"/>
				<path style="fill:#231F20;" d="M249.1,31.5l-0.1,3.3l3,1.8l-3.3,0.9l-0.7,3.4l-1.9-3l-3.5,0.3l2.2-2.7l-1.3-3.1l3.2,1.2
					L249.1,31.5 M249.8,30.2l-1.1,0.9l-2.2,1.9l-2.8-1l-1.3-0.5l0.6,1.3l1.1,2.7l-2,2.4l-0.9,1.1l1.5-0.1l3.1-0.3l1.7,2.7l0.8,1.2
					l0.3-1.4l0.7-3.1l2.9-0.8l1.4-0.4l-1.3-0.7l-2.7-1.6l0.1-2.9L249.8,30.2L249.8,30.2z"/>
			</g>
		</g>
	</g>
	<g>
		<g>
			<g>
				<polygon style="fill:#ED3538;" points="245.9,38.1 242.2,38.4 244.5,35.5 243.2,32.2 246.6,33.5 249.3,31.2 249.2,34.7 
					252.4,36.6 248.8,37.6 248,41.3 				"/>
				<path style="fill:#FFFFFF;" d="M249.1,31.5l-0.1,3.3l3,1.8l-3.3,0.9l-0.7,3.4l-1.9-3l-3.5,0.3l2.2-2.7l-1.3-3.1l3.2,1.2
					L249.1,31.5 M249.4,30.9l-0.5,0.4l-2.4,2l-3-1.1l-0.7-0.3l0.3,0.7l1.2,2.9l-2.1,2.5l-0.5,0.6l0.7-0.1l3.3-0.3l1.8,2.8l0.4,0.6
					l0.2-0.7l0.7-3.2l3.1-0.9l0.7-0.2l-0.6-0.4l-2.8-1.7l0.1-3.1L249.4,30.9L249.4,30.9z"/>
			</g>
		</g>
	</g>
</g>
<g>
	<g>
		<g>
			<g>
				<polygon style="fill:#ED3538;" points="223.9,63.4 219.8,63.7 222.4,60.6 220.9,57 224.5,58.4 227.4,55.9 227.3,59.7 
					230.8,61.8 227,62.8 226.1,66.8 				"/>
				<path style="fill:#231F20;" d="M227.1,56.6l-0.1,3.3l3,1.8l-3.3,0.9L226,66l-2-3l-3.5,0.3l2.2-2.7l-1.3-3.1l3.1,1.2L227.1,56.6
					 M227.8,55.3l-1.1,0.9l-2.2,1.9l-2.8-1l-1.3-0.5l0.6,1.3l1.1,2.7l-2,2.4l-0.9,1.1l1.5-0.1l3.1-0.3l1.7,2.7l0.8,1.2l0.3-1.4
					l0.7-3.1l2.9-0.8l1.4-0.4l-1.3-0.7l-2.7-1.6l0.1-2.9L227.8,55.3L227.8,55.3z"/>
			</g>
		</g>
	</g>
	<g>
		<g>
			<g>
				<polygon style="fill:#ED3538;" points="223.9,63.2 220.2,63.5 222.6,60.6 221.2,57.3 224.6,58.6 227.3,56.3 227.2,59.8 
					230.4,61.7 226.8,62.7 226,66.4 				"/>
				<path style="fill:#FFFFFF;" d="M227.1,56.6l-0.1,3.3l3,1.8l-3.3,0.9L226,66l-2-3l-3.5,0.3l2.2-2.7l-1.3-3.1l3.1,1.2L227.1,56.6
					 M227.4,55.9l-0.5,0.4l-2.4,2l-3-1.1l-0.7-0.2l0.3,0.7l1.2,2.9l-2.1,2.5l-0.5,0.6l0.7-0.1l3.3-0.3l1.9,2.8l0.4,0.6l0.2-0.7
					l0.7-3.2l3.1-0.9l0.7-0.2l-0.6-0.4l-2.8-1.7l0.1-3.1L227.4,55.9L227.4,55.9z"/>
			</g>
		</g>
	</g>
</g>
<g>
</g>
<g>
</g>
<g>
</g>
<g>
</g>
<g>
</g>
<g>
</g>
</svg>
