<?xml version="1.0" encoding="utf-8"?>
<!-- Generator: Adobe Illustrator 25.4.1, SVG Export Plug-In . SVG Version: 6.00 Build 0)  -->
<svg version="1.1" id="Layer_2_00000103247940209490347510000015632189961376885436_"
	 xmlns="http://www.w3.org/2000/svg" xmlns:xlink="http://www.w3.org/1999/xlink" x="0px" y="0px" width="960px" height="453.6px"
	 viewBox="0 0 960 453.6" style="enable-background:new 0 0 960 453.6;" xml:space="preserve">
<style type="text/css">
	.st0{fill:#0E4E97;}
</style>
<path class="st0" d="M799.1,378.8h80.2l0,0l-74.7,74.7h80.7l74.7-74.7l0,0V0H0v378.8h74.7L0,453.6h80.7l74.7-74.7l0,0h80.2l0,0
	l-74.7,74.7h80.7l74.7-74.7l0,0h80.2l0,0l-74.7,74.7h80.7l74.7-74.7l0,0h80.2l0,0l-74.7,74.7h80.7l74.7-74.7l0,0h80.2l0,0
	l-74.7,74.7h80.7L799.1,378.8"/>
</svg>
