<?xml version="1.0" encoding="utf-8"?>
<!-- Generator: Adobe Illustrator 25.4.1, SVG Export Plug-In . SVG Version: 6.00 Build 0)  -->
<svg version="1.1" id="Layer_1" xmlns="http://www.w3.org/2000/svg" xmlns:xlink="http://www.w3.org/1999/xlink" x="0px" y="0px"
	 width="200px" height="54.9px" viewBox="0 0 200 54.9" style="enable-background:new 0 0 200 54.9;" xml:space="preserve">
<style type="text/css">
	.st0{fill:#FFFFFF;}
	.st1{fill:#D40024;}
</style>
<g>
	<path class="st0" d="M0.7,54.2C-0.9,50.6,0.8,44.2,1,43.8v-0.2L19.2,5.1h54.2L67.1,17H37.6l-2.2,4.6h30.1l-5.9,12H29.6
		c-0.8,1.9-3.2,7.7-4.2,9.8c-1,2.4-1,4.3-1,4.3v0.8L1.1,54.9L0.7,54.2z"/>
	<path class="st0" d="M60.5,54.2c-1.6-3.7,0.2-10.1,0.3-10.4v-0.2L78.9,5.1h54.2L126.7,17H97.5l-2.2,4.6h30.1l-6.1,12H89.3
		c-0.8,1.9-3.2,7.7-4.2,9.8c-1,2.4-1,4.3-1,4.3v0.8l-23.4,6.4L60.5,54.2z"/>
	<polygon class="st0" points="168.6,17.4 164.5,17.8 167.2,14.7 165.6,11 169.3,12.5 172.3,9.9 172.2,13.8 175.7,15.8 171.8,17 
		170.9,21 	"/>
	<polygon class="st1" points="167.7,14.7 165.6,17.3 168.8,17 170.7,19.8 171.4,16.6 174.6,15.7 171.7,14.1 171.8,10.9 169.4,13 
		166.4,11.8 	"/>
	<polygon class="st0" points="193,7.5 189,7.8 191.5,4.6 189.9,1.1 193.6,2.4 196.6,0 196.5,3.8 200,5.9 196.2,6.9 195.2,11 	"/>
	<polygon class="st1" points="198.9,5.8 196,4 196.2,1 193.8,3 190.7,1.9 192,4.8 189.9,7.4 193.1,7 195,9.9 195.7,6.6 	"/>
	<polygon class="st0" points="189.1,25.4 185.1,25.8 187.7,22.6 186.1,19 189.9,20.3 192.8,17.9 192.6,21.8 196.2,23.8 192.3,24.8 
		191.4,28.8 	"/>
	<polygon class="st1" points="195,23.7 192.2,21.9 192.3,18.9 189.9,20.8 186.9,19.7 188.2,22.7 186.1,25.1 189.4,25 191.2,27.7 
		192,24.5 	"/>
	<polygon class="st0" points="168.8,47.8 164.8,48.2 167.4,45.1 165.8,41.4 169.4,42.9 172.5,40.3 172.3,44.2 175.8,46.2 172,47.4 
		171,51.4 	"/>
	<polygon class="st1" points="174.7,46.1 171.8,44.5 172,41.3 169.6,43.4 166.6,42.2 167.8,45.1 165.8,47.7 169.1,47.4 170.9,50.2 
		171.7,46.9 	"/>
	<g>
		<polygon class="st0" points="189.9,8.6 187,8.8 189,6.6 190.1,5.1 138.9,5.1 119.4,48.6 163.4,48.6 164.8,46.9 166.4,45 
			165.4,42.7 164.3,40 167,41 169.3,41.9 171.2,40.3 173.3,38.6 173.3,41.3 173.3,43.7 173.8,44 177.1,37.4 146.9,37.4 148.8,33.6 
			171.4,33.6 177.3,21.8 154.9,21.8 157.3,17.1 164,17.1 164.5,16.5 166.1,14.6 165.3,12.3 164,9.6 166.9,10.7 169.1,11.5 
			170.9,9.9 173.1,8.2 173.1,11 173,13.3 175.2,14.6 177.8,16.2 174.9,17 174.6,17.1 186.7,17.1 191.2,8.5 		"/>
	</g>
	<g>
		<path class="st0" d="M183.8,45.8c0,1.8-1.1,3-3,3c-1.8,0-3-1.1-3-3c0-1.8,1.1-3,3-3C182.6,42.7,183.8,43.8,183.8,45.8z
			 M183.2,45.8c0-1.4-1-2.4-2.4-2.4s-2.4,1-2.4,2.4s1,2.4,2.4,2.4S183.2,47.2,183.2,45.8z M181.4,46.1l0.8,1.3h-0.6l-0.8-1.1h-0.6
			v1.1h-0.6v-3.2h1.3c0.8,0,1.3,0.3,1.3,1C182.2,45.6,181.9,45.9,181.4,46.1z M180.3,45.8h0.8c0.5,0,0.6-0.2,0.6-0.6
			c0-0.3-0.2-0.6-0.6-0.6h-0.8V45.8z"/>
	</g>
</g>
</svg>
