<?xml version="1.0" encoding="utf-8"?>
<!-- Generator: Adobe Illustrator 25.4.1, SVG Export Plug-In . SVG Version: 6.00 Build 0)  -->
<svg version="1.0" id="Layer_1" xmlns="http://www.w3.org/2000/svg" xmlns:xlink="http://www.w3.org/1999/xlink" x="0px" y="0px"
	 width="200px" height="55.1090126px" viewBox="0 0 200 55.1090126" style="enable-background:new 0 0 200 55.1090126;"
	 xml:space="preserve">
<g>
	<path style="fill:#004C97;" d="M0.6681925,54.2121773c-1.6355662-3.6780815,0.2358751-10.1581421,0.3162272-10.4328957
		l0.0259198-0.0803528L19.157095,5.1399875h54.1758804L66.9125366,17.055521H37.6537781l-2.2524719,4.6863785h30.0726624
		l-5.9564743,11.9181232H29.5303745c-0.839817,1.9777145-3.2452145,7.6516533-4.152422,9.782299
		c-1.0005226,2.3276405-1.0238495,4.3571892-1.0238495,4.3805199l-0.0051842,0.8579559l-23.2815552,6.425621L0.6681925,54.2121773z"
		/>
	<path style="fill:#004C97;" d="M60.4169273,54.2121773c-1.6329727-3.6780815,0.2384682-10.1529541,0.318821-10.4277153
		l0.0233269-0.0829468L78.905838,5.1399794h54.1732941l-6.4152527,11.9155321H97.4025116l-2.2498779,4.6915646h30.0726547
		l-5.959053,11.9155331H89.2791138c-0.8372269,1.9777145-3.24263,7.6542511-4.155014,9.782299
		c-0.9979324,2.3250465-1.0212631,4.3571892-1.0212631,4.3779221l-0.0051804,0.8605537l-23.284153,6.4256287L60.4169273,54.2121773z
		"/>
	<polygon style="fill:#FFFFFF;" points="168.6209564,17.4935646 164.5488892,17.8253479 167.1227722,14.6838121 
		165.6038361,11.0912676 169.3156281,12.4598551 172.2420197,9.9974327 172.1486969,13.8077106 175.647934,15.8761444 
		171.7754517,16.9362812 170.9097137,20.9565086 	"/>
	<polygon style="fill:#D40024;" points="167.6282196,14.7589827 165.5390472,17.304348 168.8438721,17.0373707 
		170.7023468,19.8471222 171.4022064,16.5837669 174.5359497,15.7258072 171.7054596,14.0539522 171.7806244,10.9564848 
		169.4011536,12.9575233 166.3995972,11.8507318 	"/>
	<polygon style="fill:#FFFFFF;" points="192.9652405,7.4987226 188.8983612,7.8356862 191.467041,4.6941547 189.9559021,1.0964249 
		193.6651001,2.465013 196.5940704,0 196.5007629,3.8154571 200,5.8787079 196.1223297,6.9440293 195.2514038,10.9642611 	"/>
	<polygon style="fill:#D40024;" points="198.8880157,5.7309642 196.0575256,4.0617003 196.1326904,0.959048 193.7506256,2.962683 
		190.7490692,1.8558879 191.9724884,4.7667313 189.8885193,7.3146911 193.1881561,7.0425277 195.0440369,9.8548746 
		195.7516632,6.5941086 	"/>
	<polygon style="fill:#FFFFFF;" points="189.1471863,25.381094 185.072525,25.7154636 187.6490021,22.5765228 
		186.1352539,18.9736118 189.8418579,20.3473854 192.7656555,17.8849621 192.6801147,21.6978283 196.1741638,23.76367 
		192.3016815,24.8264027 191.4307709,28.844038 	"/>
	<polygon style="fill:#D40024;" points="195.0621796,23.6133327 192.2368927,21.9440727 192.3068542,18.8440113 
		189.9273834,20.8450527 186.9309998,19.7356682 188.1544495,22.6490993 186.0652771,25.1970596 189.3701019,24.9249001 
		191.2233887,27.7372437 191.9284363,24.4738865 	"/>
	<polygon style="fill:#FFFFFF;" points="168.8205414,47.8617172 164.7484741,48.1986771 167.3197632,45.057148 
		165.816391,41.4620132 169.5151978,42.8280067 172.4467773,40.3655815 172.3482819,44.1784477 175.8475037,46.2442894 
		171.9776154,47.3044281 171.1092987,51.3324356 	"/>
	<polygon style="fill:#D40024;" points="174.7355347,46.09655 171.9050446,44.4246941 171.9853973,41.3246346 
		169.6007385,43.325676 166.6069489,42.2188797 167.8252106,45.1297226 165.7386169,47.677681 169.0434418,47.4055214 
		170.901947,50.2230492 171.6069641,46.9545097 	"/>
	<g>
		<polygon style="fill:#004C97;" points="189.9947815,8.5977421 186.9750824,8.8491688 188.8931732,6.5007958 
			190.0051575,5.1425738 138.8748932,5.1425738 119.3051224,48.5823021 163.3384247,48.5823021 164.7432861,46.8637886 
			166.3399658,44.9119949 165.4223938,42.7165489 164.2819061,39.9897346 167.0527802,41.013588 169.3467255,41.8611794 
			171.1585541,40.3396606 173.3436279,38.507103 173.2710419,41.358326 173.2088318,43.7015152 173.7453766,44.0177422 
			177.0502167,37.4054909 146.8220367,37.4054909 148.7582855,33.6626091 171.3607178,33.6626091 177.296463,21.747076 
			154.8832397,21.747076 157.3534241,17.0581074 164.0797272,17.0581074 164.5462952,16.4904537 166.1429749,14.5438442 
			165.2150421,12.3509912 164.0615845,9.6189995 166.8454132,10.6454391 169.1445465,11.4930315 170.9537811,9.9715157 
			173.136261,8.1363621 173.0662689,10.9875879 173.0092621,13.3307753 175.1917419,14.6190119 177.8070831,16.1638603 
			174.8755035,16.9673843 174.5437317,17.0581074 186.6458893,17.0581074 191.2596893,8.4914684 		"/>
	</g>
	<g>
		<path style="fill:#004C97;" d="M183.7972565,45.6973763c0,1.8014603-1.1716003,2.973053-2.9886169,2.973053
			c-1.8195953,0-2.9911804-1.1715927-2.9911804-2.973053s1.1716003-2.9730492,2.9911804-2.9730492
			C182.6256561,42.7243271,183.7972565,43.895916,183.7972565,45.6973763z M183.1777649,45.6973763
			c0-1.4593086-0.927948-2.4053955-2.3691254-2.4053955c-1.4437561,0-2.3691101,0.9435005-2.3691101,2.4053955
			c0,1.4593124,0.927948,2.4053993,2.3691101,2.4053993C182.2498169,48.1027756,183.1777649,47.1566887,183.1777649,45.6973763z
			 M181.4462891,46.1095085l0.8579559,1.2234344h-0.663559l-0.7776031-1.1715927h-0.5935669v1.1715927h-0.5858002v-3.234848
			h1.3297119c0.725769,0,1.2234192,0.3939857,1.2234192,1.0316277
			C182.2316589,45.627388,181.9258118,45.977314,181.4462891,46.1095085z M180.264328,45.7155228h0.733551
			c0.4199066,0,0.647995-0.1918068,0.647995-0.5858002s-0.2280884-0.5858002-0.647995-0.5858002h-0.733551V45.7155228z"/>
	</g>
</g>
</svg>
