<?xml version="1.0" encoding="utf-8"?>
<!-- Generator: Adobe Illustrator 25.4.1, SVG Export Plug-In . SVG Version: 6.00 Build 0)  -->
<svg version="1.0" id="Layer_1" xmlns="http://www.w3.org/2000/svg" xmlns:xlink="http://www.w3.org/1999/xlink" x="0px" y="0px"
	 width="200px" height="33.1963348px" viewBox="0 0 200 33.1963348" style="enable-background:new 0 0 200 33.1963348;"
	 xml:space="preserve">
<path style="fill:#FFFFFF;" d="M42.720726,8.1515818l-3.8093033,12.1138544h9.6492233L44.751339,8.1515818H42.720726z
	 M50.6011353,26.7541466H36.870945l-1.8485031,5.877121c-2.3508339,0.188179-5.6866264,0.188179-8.0845165,0L37.0075378,0.6111266
	c2.4449348-0.1881779,11.0120659-0.1881779,13.4570007,0L60.53339,32.6312675c-2.397892,0.188179-5.6858749,0.188179-8.0837669,0
	L50.6011353,26.7541466z"/>
<path style="fill:#FFFFFF;" d="M8.2287073,20.2184486v12.4136276c-2.3045535,0.187439-5.8308172,0.187439-8.2287073,0V0.6111729
	h25.4843864c0.2352333,1.9274457,0.2352333,4.7017155,0,6.5828457H8.2287073v6.488687h16.2692032
	c0.2344818,1.8803663,0.2344818,4.6546354,0,6.5357428H8.2287073z"/>
<path style="fill:#FFFFFF;" d="M66.0735779,32.6316147V0.6107098c2.4919815-0.1873905,5.9241333-0.1873905,8.2286987,0v25.4381046
	h17.0212097c0.2344666,1.8811302,0.2344666,4.7016926,0,6.5827999H66.0735779z"/>
<path style="fill:#FFFFFF;" d="M96.3589706,8.8866005C96.3589706,2.1626797,102.7065353,0,112.2518005,0
	c3.5262451,0,6.817276,0.2352803,11.1433487,0.8931388c0.2352371,1.8811306,0.2352371,4.6553998,0,6.5357895
	c-3.4792328-0.4234118-6.6769104-0.6108484-9.6856537-0.6108484c-5.2199554,0-9.1225967,0.1874366-9.1225967,3.8085299v11.7549591
	c0,3.6673851,3.9026413,3.9026184,9.1225967,3.9026184c2.8213043,0,6.6768951-0.4234104,9.779747-0.9409351
	c0.4234085,2.0222759,0.6108475,4.3260536,0.6108475,6.4887104c-4.4664383,0.9409599-8.791748,1.3643723-11.8482895,1.3643723
	c-9.5452652,0-15.8928299-2.1633987-15.8928299-8.8873672V8.8866005z"/>
<path style="fill:#FFFFFF;" d="M153.2100677,10.767292c0-3.5733194-3.2439728-3.9496756-7.3818512-3.9496756
	c-4.1371002,0-7.3826141,0.3763561-7.3826141,3.9496756v11.5667572c0,3.5270271,3.2455139,3.9026432,7.3826141,3.9026432
	c4.1378784,0,7.3818512-0.3756161,7.3818512-3.9026432V10.767292z M161.438797,24.0740356
	c0,6.8180561-6.2064514,9.1218567-15.6105804,9.1218567c-9.4041138,0-15.6105347-2.3038006-15.6105347-9.1218567V9.0751028
	c0-6.770977,6.2064209-9.0747786,15.6105347-9.0747786c9.404129,0,15.6105804,2.3038015,15.6105804,9.0747786V24.0740356z"/>
<path style="fill:#FFFFFF;" d="M176.8664551,12.4130955v20.2189121c-2.5860901,0.2815247-5.5955963,0.2815247-8.228714,0V0.6111266
	c2.8676147-0.1882242,6.0182495-0.1882242,8.840332,0l14.2932281,20.6885929V0.6111266
	c2.91539-0.1882242,5.5014801-0.1882242,8.2286987,0v32.0208817c-3.0558014,0.188179-5.9712067,0.188179-9.0277405,0
	L176.8664551,12.4130955z"/>
</svg>
