<?xml version="1.0" encoding="utf-8"?>
<!-- Generator: Adobe Illustrator 25.4.1, SVG Export Plug-In . SVG Version: 6.00 Build 0)  -->
<svg version="1.0" id="Layer_2_00000103247940209490347510000015632189961376885436_"
	 xmlns="http://www.w3.org/2000/svg" xmlns:xlink="http://www.w3.org/1999/xlink" x="0px" y="0px" width="960px"
	 height="453.6000061px" viewBox="0 0 960 453.6000061" style="enable-background:new 0 0 960 453.6000061;" xml:space="preserve">
<path style="fill:#0B4F97;" d="M799.0999756,378.7999878h80.2000122l0,0L804.5999756,453.5h80.7000122L960,378.7999878l0,0V0H0
	v378.7999878h74.6999969L0,453.6000061h80.6999969l74.6999969-74.6999817l0,0h80.1999969l0,0l-74.6999969,74.7000122h80.6999969
	l74.6999969-74.7000122l0,0H396.5l0,0l-74.7000122,74.7000122H402.5l74.7000122-74.7000122l0,0h80.2000122l0,0
	l-74.7000122,74.7000122h80.7000122l74.7000122-74.7000122l0,0h80.2000122l0,0l-74.7000122,74.7000122h80.7000122
	L799.0999756,378.7999878"/>
</svg>
