<?xml version="1.0" encoding="utf-8"?>
<!-- Generator: Adobe Illustrator 24.1.3, SVG Export Plug-In . SVG Version: 6.00 Build 0)  -->
<svg version="1.0" id="Layer_2" xmlns="http://www.w3.org/2000/svg" xmlns:xlink="http://www.w3.org/1999/xlink" x="0px" y="0px"
	 width="800px" height="800px" viewBox="0 0 800 800" style="enable-background:new 0 0 800 800;" xml:space="preserve">
<path style="fill:#231F20;" d="M606.3,367.8c0,0,19.8-17.1,25.2-21.3c5.5-4.2,11.5-2.1,11.5-2.1s15.1,4.6,19.4,5.9
	c4.3,1.3,4.3,3.4,4.3,3.4l27,42.2c0,0,2.5-2.2,7.2-8.5c4.7-6.2,2.6-11.5,2.6-11.5s0,0-18.2-29.7s5.2-65.6,5.2-65.6h-38l-62,29.2
	l-139.2,25.9l-179.6-25.4c0,0-38-2.1-72.9,0c-34.9,2.1-60.2,54.8-60.2,54.8L15,641h229.2l54.9-239.8c0,0,28.5-5.3,56,1.1
	c27.5,6.3,96.1-1.1,96.1-1.1"/>
<circle cx="271.4" cy="196.5" r="79.7"/>
<g>
	<path style="fill:#231F20;" d="M747.5,301.1l2.1-3.4l-8.3-4.9l-2.1,3.1c0,0-19.1-5.2-27.4,10.8c-8.3,16,5.6,29.2,5.6,29.2
		s21.9,11.8,34-3.8C763.5,316.4,747.5,301.1,747.5,301.1z M732.5,335.4c-9.8,0-17.8-8-17.8-17.8c0-9.8,8-17.8,17.8-17.8
		c9.8,0,17.8,8,17.8,17.8C750.3,327.4,742.3,335.4,732.5,335.4z"/>
	<path style="fill:#231F20;" d="M783,312.6c-6.2-43.4-45.5-45.1-45.5-45.1H322.3v8l380.1,0.3c0,0-21,16.5-21.2,41.8
		c-0.2,25.4,22.2,42.9,22.2,42.9l-8.7,0.3l6,6.9h42.6C743.4,367.8,789.2,356,783,312.6z M731.8,364c-25.6,0-46.3-20.7-46.3-46.3
		s20.7-46.3,46.3-46.3c25.6,0,46.3,20.7,46.3,46.3S757.4,364,731.8,364z"/>
</g>
<path d="M706.1,260.9v-27.1l8.7-11.5v-19.8c0,0,13.7,0,13.7,7.3c0,7.3,0,18.4,0,18.4s1.2,1.7-0.7,3.5s-1.9,1.7-1.9,1.7
	s-1.7-1.2-1.9,5.2c-0.2,6.4-1.2,20.5-1.2,20.5s0.7,2.8-3.6,2.6S706.1,260.9,706.1,260.9z"/>
<path d="M726,257l1.2-22.2l13.4-9.5l6.8-1c0,0,0.7,0.9,5-2.4c4.3-3.3,10.4-8.2,10.4-8.2s9.4,5.4,5,13.4l-14.4,13.7l-7.8,0.5L726,257
	z"/>
<path d="M734.9,255.6l13.4-11.1l19.3,12.5c0,0-3.3,12.3-14.6,7.5C741.6,259.6,734.9,255.6,734.9,255.6z"/>
<polygon points="616.5,361.4 661.8,361.4 667.5,367.8 608.7,367.8 "/>
</svg>
