<?xml version="1.0" encoding="utf-8"?>
<!-- Generator: Adobe Illustrator 24.1.3, SVG Export Plug-In . SVG Version: 6.00 Build 0)  -->
<svg version="1.0" id="Layer_2" xmlns="http://www.w3.org/2000/svg" xmlns:xlink="http://www.w3.org/1999/xlink" x="0px" y="0px"
	 width="800px" height="800px" viewBox="0 0 800 800" style="enable-background:new 0 0 800 800;" xml:space="preserve">
<path d="M213.7,195.2l85.8-85.8c0,0-0.3-6.8,53.3-22.9S583.2,8,583.2,8s-2.7-5.4,96.5-7.1S798.4,0,798.4,0l0.1,215.2l-84.9,42
	c0,0-21.4,9.8-23.2,26.8c0,0-52.7,109-75.9,130.4c-23.2,21.4-35.7,49.1-35.7,49.1s-33,52.7-66.1,57.2c0,0-19.7,7.1-27.7,19.7
	s-13.4,3.6-35.7,25c-22.3,21.4-99.1,103.6-109.9,126.8c-10.7,23.2-41.1-14.3-41.1-14.3s-15.2-44.7,0-59s63.4-90.2,63.4-90.2
	s13.4-8.9,9.8-32.2c-3.6-23.2-0.9-59-21.4-40.2s-92.9,79.5-92.9,79.5s-17.9,10.7-24.1,1.8c-6.3-8.9-12.5-28.6-14.3-52.7
	s10.7-33,10.7-33l81.3-80.4c0,0,15.2-15.2-3.6-15.2l-76.8,73.2c0,0-24.1,24.1-25-11.6s-0.9-35.7-0.9-35.7s7.1-22.3,22.3-42.9
	s63.4-62.5,63.4-62.5s17-33-6.3-12.5c-19.5,17.3-61.6,61.6-61.6,61.6s-8,17-11.6-3.6s-0.9-38.4-0.9-38.4s8.9-13.4,17-23.2
	c8-9.8,50-46.4,50-46.4s6.3-23.2-6.3-8.9c-12.5,14.3-58.1,53.6-58.1,53.6s-17,18.8-11.6-8C206.3,224.1,213.7,195.2,213.7,195.2z"/>
<path d="M12.5,732.4c0,0-12.5-0.9-5.4-17c7.1-16.1,13.4-33.9,13.4-33.9l52.7-35.7h44.7c0,0,6.3,5.4,30.4-13.4
	c24.1-18.8,191.2-146.5,191.2-146.5s21.4-17,12.5,13.4s-17,47.3-17,47.3s-23.2,27.7-32.2,37.5s-114.3,95.6-114.3,95.6
	s-17.9,7.1-23.2,42.9c-5.4,35.7-20.5,49.1-20.5,49.1l-33,27.7h-42c0,0-20.5,5.4,7.1-15.2c27.7-20.5,46.4-48.2,46.4-48.2
	s19.7-47.3-48.2-50L12.5,732.4z"/>
<path d="M99.7,713.3l-32.5-13.6l-30.3,20.4l1.5,40.5l37.2,13.1l25.6-24.7L99.7,713.3z M67.8,746.5c-4.1,0-7.4-3.3-7.4-7.4
	s3.3-7.4,7.4-7.4c4.1,0,7.4,3.3,7.4,7.4S71.8,746.5,67.8,746.5z"/>
</svg>
