<?xml version="1.0" encoding="utf-8"?>
<!-- Generator: Adobe Illustrator 24.1.3, SVG Export Plug-In . SVG Version: 6.00 Build 0)  -->
<svg version="1.0" id="Layer_2" xmlns="http://www.w3.org/2000/svg" xmlns:xlink="http://www.w3.org/1999/xlink" x="0px" y="0px"
	 width="800px" height="800px" viewBox="0 0 800 800" style="enable-background:new 0 0 800 800;" xml:space="preserve">
<path d="M184.1,670.6l206.9-1.4c0,0,14-1.7,14.6,15.4c0.6,17.1,1.4,77.4,1.4,77.4s2.3,12.8-12.6,14.6c-14.8,1.7-209.2,0-209.2,0
	s-12,0-11.7-13.1c0.3-13.1,0-82.2,0-82.2S171.8,670.7,184.1,670.6z"/>
<path d="M240,128.5c0,0-13.1-3.4-17.7,10.3c-4.6,13.7-20,73.6,33.1,118.7c0,0,13.1,11.4,31.4,13.7l37.1,8.6c0,0,19.4,6.3,32-6.3
	l10.8-18.3c0,0,4.6-26.8,17.1-22.8c12.6,4,18.1-0.6,18.1-0.6s2.9-1.3,3.9-12.3l-1.1-12l-2.7-15.4l-5.3,0.6c0,0-52.4,39.7-70.1-22.5
	c0,0-0.4-11.7-9.4-17.4C308.2,147.1,240,128.5,240,128.5z"/>
<path d="M426.4,151.4c-25.4-26.5-22.3-50.2-24.4-58.5s-8.7-31.7-36.7-50.2c-28-18.6-50.2-15.7-50.2-15.7
	c-64.2-0.9-81.9,53.1-87.9,67.6c-6,14.6,4,15.1,4,15.1l107.3,34c-16.3,53.7,23.2,61.5,43.7,49.7c20.5-11.9,26.3-28,26.3-28l27.1,4
	l2.3-5.4L426.4,151.4z M381.3,133.7l-123-37.1c0,0,14-59.1,75.4-43.4S381.3,133.7,381.3,133.7z"/>
<path d="M734.5,480.8c-15.4-3.9-20.6-10.5-20.6-10.5l-26.3-28.5l0.6-7.7l-6.9-17.6c0,0-1.1-6.6-12-5.8l-14.1,3.9l-5.1,4.1
	c0,0,0.6,1.5-6.6,0l-22,0.6c0,0-16.1,5.5-34.3-11c0,0-5.1-4.8-12.8,2.9l-99.1,125.2c0,0-4.3,8.6-13.1,8.8l-42,10.1l-18.2,6.4
	l-201.9-0.4l54.8-127.9l5.7,2.3l-47.4,116.5l178.7,1.7c0,0,13.1,2.9,13.7-14.3v-98.8l73.6,50.2c0,0,8.6,9.1,20-2.3l69.6-87.3
	c0,0,8-7.4,14.3-4.6l29.1,8.6l-1.7-103.7c0,0,6.9-16.2,13.7-17.4l24.5,21.7l28.5,4.6l-8-26.3l-18.8-24.5l30.3-26.8
	c0,0,9.7-6.9,2.9-15.4l-9.5-9.8c0,0-4.3-2.8-10.3,1.1c-6,3.9-30.6,23.1-30.6,23.1l-2.8-2.8l32.8-30.2c0,0,7.3-6.4,3.2-16.1
	c-4.1-9.6-12.2-10.7-12.2-10.7s-3-1.7-8.3,2.1c-5.4,3.9-36,30.4-36,30.4l-4.1-4.3l36.6-33.2c0,0,9.4-9.2,4.1-18.2
	c-5.4-9-13.1-10.1-13.1-10.1s-0.9-1.7-6.9,2.1c-6,3.9-28.5,22-28.5,22l-2.1-2.4l14.8-14.3c0,0,5.4-8.3,2.8-19.7
	c-2.6-11.3-7.7-11.1-7.7-11.1s-2.6-1.7-7.3,0.9c-4.7,2.6-36,29.3-36,29.3v-17.8c0,0,0-10.1-9.2-11.6l-12.6-3c0,0-5.6-1.1-14.6-14.1
	l-6.9-9.6c0,0-5.8-6-11.3-2.8c-5.6,3.2-13.3,10.7-13.3,10.7s-6.6,6.9-0.9,15.2c0,0,9.8,9.2,10.3,13.7c0,0,5.4,8.3,11.6,14.3
	c6.2,6-0.4,18.2-0.4,18.2s-30,29.3-5.6,59.7c0,0,6.2,15.4,3.4,18.6l4.3,155.8l-101.7-73.2c0,0-29.5-21.8-61.2-21.8
	c-31.7,0-64.7,3.4-64.7,3.4l-42.2-2.1c0,0-39.4-7-63.7,32c0,0-11.8,23.1-32,75.9C131.8,460.4,83,578.4,83,578.4s-24,66.8,61.7,82.2
	h234.6c0,0,16-4.6,32.5,13.1c0,0,38.3,21.1,57.4,21.8c0,0,19.3,4.5,48.2,20.6l22.3,11.3l6.4,2.8c0,0,8.3,6,16.7-3.4l178.5-228.8
	C741.2,497.9,749.9,484.6,734.5,480.8z M562.5,164.6l102,120.8l-0.3,13.6l-14.4-3L549.6,175.1L562.5,164.6z M502.5,108l11.4-9.8
	l32.6,35.5l-12,11L502.5,108z M560.3,708c0,0-0.6,14.8-28.5,0c-28-14.8-32-19.4-32-19.4l53.7-1.1c0,0,21.1-12-0.6-22.3L491,663
	l0.4-4.3l72.5,0.1c0,0,15.3,2,14-13.8c0,0,0.7-11.8-18.3-11.6c-19,0.3-78.9-0.9-78.9-0.9v-6.4l100.6-0.4c0,0,16.7,1.9,16.6-12.8
	c-0.1-14.7-12-14.1-12-14.1l-102.2-0.6l0.1-6.7l80.5,0.4c0,0,12.8,1,16.4-9.3c3.6-10.3-9.1-18.1-9.1-18.1l-100.5-0.4l101-131.3
	c0,0,5.1-17.1,30.3-4c25.1,13.1,126.2,65.2,126.2,65.2L560.3,708z"/>
</svg>
