<?xml version="1.0" encoding="utf-8"?>
<!-- Generator: Adobe Illustrator 24.1.3, SVG Export Plug-In . SVG Version: 6.00 Build 0)  -->
<svg version="1.0" id="Layer_2" xmlns="http://www.w3.org/2000/svg" xmlns:xlink="http://www.w3.org/1999/xlink" x="0px" y="0px"
	 width="800px" height="800px" viewBox="0 0 800 800" style="enable-background:new 0 0 800 800;" xml:space="preserve">
<path d="M25,585.8c0,0,115-72.7,153.3-216.8s74-219.4,202.2-214.1c0,0-80.6,48.9-47.6,137.5c0,0,42.3-1.3,70-92.5
	c0,0,18.5-1.3,15.9,33c0,0-2.2,23.3,6.7,26c0,0,14.5-80.1,33-104.3c18.5-24.2,51.2-49.3,103.4-71.1c0,0,17.5-3.3,31.7-41.6
	c0,0,15.2,40.3,1.3,67.1c-13.9,26.8-56.8,90.9-56.8,90.9s-11.2,28.9-3.3,49.8s27.1,0,27.1,0s14.2-11.8,19.8-37.6
	c0,0,18.2,23.1,10.6,50.2c-7.6,27.1-10.2,43.6-6.9,57.8c0,0,84.3-74.7,82.3-144.7c0,0,63.8,66.1-51.9,259.7c0,0,11.2,26.4,58.8-33.7
	c0,0,13.9-24.5,66.7-21.1c0,0-33,18.5-36.3,43.6c-3.3,25.1-2.4,57.8-2.4,57.8s37.2,3,61.7-78.1c0,0,44.1,92.4-46.8,182.1
	C717.5,585.8,398.4,982.3,25,585.8z"/>
<path d="M183.4,294.9c0,0-36.2-76.8,13.4-139.8s98.6-94.7,98.6-94.7s-11.9,29.7-12.9,50.6c-1,20.8-24.8,66.7-24.8,66.7l-55.5,65.2
	C202.3,242.8,193.3,251.7,183.4,294.9z"/>
<path d="M290.5,146.2c0,0,11.9-11.9,18.3-38.2s74.3-55.5,74.3-55.5s-20.3,43.6-25.3,59.5s-23.3,27.8-23.3,27.8
	S317.7,147.2,290.5,146.2z"/>
<path d="M604.2,196.2c0,0-15.4-95.2,65.4-94.2c0,0-24.3,9.4-27.3,72.4S604.2,196.2,604.2,196.2z"/>
<path d="M697.4,368.2c0,0-1-5.9-4-7.4c-3-1.5-4.5-19.8,13.4-36.2c17.8-16.4,20.3-29.7,20.3-29.7s11.9,12.9,6.9,36.7
	C729.1,355.3,697.4,368.2,697.4,368.2z"/>
</svg>
