<?xml version="1.0" encoding="utf-8"?>
<!-- Generator: Adobe Illustrator 24.1.3, SVG Export Plug-In . SVG Version: 6.00 Build 0)  -->
<svg version="1.0" id="Layer_2" xmlns="http://www.w3.org/2000/svg" xmlns:xlink="http://www.w3.org/1999/xlink" x="0px" y="0px"
	 width="800px" height="800px" viewBox="0 0 800 800" style="enable-background:new 0 0 800 800;" xml:space="preserve">
<path d="M352.8,376.3c0,0,32.4-13.5,25.6,23.2l-54.6,54.6L426.2,558l58-54.6c0,0,34.8-7.2,24.6,26.1l-66.7,68.1c0,0-11.6,14-27,0
	c-15.5-14-28-26.1-28-26.1l-27.5,58.4h67.6c0,0,16.9,2.4,18.4,14s0.5,108.2,0.5,108.2s-14,23.7-36.2,0v-83.1l-90.8-0.5l65.2,65.2
	c0,0,14.5,23.7-7.7,31.4H238.3c0,0-24.6-17.4,0-36.7h86l-65.2-67.1c0,0-9.2-8.2,0-26.1c9.2-17.9,60.9-128.5,60.9-128.5l-40.1-44
	c0,0-6.3-9.2,4.3-19.8S352.8,376.3,352.8,376.3z"/>
<circle cx="401.9" cy="475.6" r="29.2"/>
<ellipse style="fill:#231F20;" cx="174.8" cy="281.5" rx="18" ry="27.5"/>
<path style="fill:#231F20;" d="M184.3,254l371.2,13.2c0,0,28.1,21.8,0,61.3L184.3,313C184.3,313,215.2,283.8,184.3,254z"/>
<path style="fill:#231F20;" d="M247.8,227.1l380.9-38.4c0,0,37.8,17.8,4.6,61.3l-149.5,12L265,251.1
	C265,251.1,260.5,227.6,247.8,227.1z"/>
<path style="fill:#231F20;" d="M224.4,249.4c0,0,1.7-24,16.6-21.2c14.9,2.9,20,21.2,20,21.2H224.4z"/>
<path style="fill:#231F20;" d="M197.4,195c0,0,30.9-33.8,4.6-60.7l365.9,54.4l-241.6,26.9L197.4,195z"/>
<path style="fill:#231F20;" d="M189.4,193.3c0,0-47-29.2,3.4-59C192.9,134.3,228.9,163.5,189.4,193.3z"/>
<line style="fill:none;stroke:#000000;stroke-miterlimit:10;" x1="542" y1="31.3" x2="542" y2="145.8"/>
<line style="fill:none;stroke:#000000;stroke-miterlimit:10;" x1="511" y1="56" x2="511" y2="127"/>
<line style="fill:none;stroke:#000000;stroke-miterlimit:10;" x1="441.5" y1="50.2" x2="441.5" y2="73.4"/>
<line style="fill:none;stroke:#000000;stroke-miterlimit:10;" x1="405.2" y1="73.4" x2="405.2" y2="105.2"/>
<line style="fill:none;stroke:#000000;stroke-miterlimit:10;" x1="342.4" y1="105.2" x2="342.4" y2="195.1"/>
<line style="fill:none;stroke:#000000;stroke-miterlimit:10;" x1="299.5" y1="98" x2="299.5" y2="150.2"/>
<line style="fill:none;stroke:#000000;stroke-miterlimit:10;" x1="261.8" y1="105.2" x2="261.8" y2="138.6"/>
</svg>
