<?xml version="1.0" encoding="utf-8"?>
<!-- Generator: Adobe Illustrator 24.1.3, SVG Export Plug-In . SVG Version: 6.00 Build 0)  -->
<svg version="1.0" id="Layer_2" xmlns="http://www.w3.org/2000/svg" xmlns:xlink="http://www.w3.org/1999/xlink" width="800px" height="800px" x="0px" y="0px"
	 viewBox="0 0 800 800" style="enable-background:new 0 0 800 801;" xml:space="preserve">
<path d="M86.2,454.9c0,0,49.8,13.1,111.1,0v129.9c0,0-40,44.1-107.8,9.8c0,0,10.6-4.1,10.6-13.1C100.1,572.5,86.2,454.9,86.2,454.9z
	"/>
<path d="M82.1,311.2c0,0,35.9,15.5,115.2,0v-72.8c0,0-9-22.1-26.1-30.2c0,0-14.1-3.3-14.1-8.2h-37.8c0,0-2.7,4.3-8.4,6.1
	c-5.7,1.8-27.6,17.8-29,30L82.1,311.2z"/>
<path d="M81.9,321.3c0,0,56.2,16.3,115.4,1.6v119.7c0,0-60.4,13.9-115.4,0V321.3z"/>
<path d="M62.5,429.6c0,0,12.7-54.7,0-138.9S67,159.2,97.2,158.4v10.2c0,0-40.8,5.7-30.2,109.9s3.3,151.1,3.3,151.1H62.5z"/>
<path d="M54.3,443h19.2l14.7,130.3c0,0-28.6,37.6-68.2,2.5L54.3,443z"/>
<path d="M227.5,136.7v-13.1L125,130.2V155l-16.3,0.1v13.5h10.6c0,0-4.5,12.2,4.5,18.8c10.8,8,24,4.9,27.8-3.3
	c2.7-5.8,4.9-11,3.7-13.9c-1.2-2.9,72.3,29.8,72.3,29.8v-8.6l-78-39.2v-8.6L227.5,136.7z M136.1,185.1c-6.4,0-11.6-5.2-11.6-11.6
	s5.2-11.6,11.6-11.6s11.6,5.2,11.6,11.6S142.6,185.1,136.1,185.1z"/>
<g>
	<path d="M612.3,514.5c0,0,0-40,0-73.1l-16.4,6.1c0,0,0,0,0,11s-15.3,16.8-22.4,16.5c-7-0.3-10.4-11.9-10.4-11.9l-146.4,65.6
		c0,0,0.3,6.7,0,12.9c-0.3,6.1-7.4,17.2-20.8,19.3c-13.5,2.1-14.1-16.8-14.1-16.8s-18.7,8.6-33.4,13.8c-14.7,5.2-34-3.1-34-3.1
		L207,506.3v-5.2c0,0,99.1,43.2,111.7,49.9c12.6,6.7,25.7,2.8,25.7,2.8s39.8-11.9,38-16.5c-1.8-4.6,4-21.7,15.6-23.9
		c11.6-2.1,14.4,0.3,17.5,4.9c3.1,4.6,6.7,2.8,6.7,2.8l141.2-64.3c-1.2-5.8,3.1-27.6,18.7-27.9c15.6-0.3,14.1,11.9,14.1,11.9
		l14.7-5.2l1.4,5.8c0-21,0-39.2,0-42.9c0-9.4-9.4-11.8-9.4-11.8s-156-73.1-167.9-78.4c-11.8-5.3-20.4,0-20.4,0l-208.7,85.4v66.6v127
		c0,0,91.5,47.4,116.8,60c25.3,12.7,32.7,1.6,32.7,1.6S592.3,537,603.7,531.3C615.2,525.5,612.3,514.5,612.3,514.5z M472,414.9
		c0,0,1-0.6-7.6,3.3c-8.6,3.9-2.9,5.7-2.9,5.7s1,0.4,8.8,3.3c7.8,2.9-2.7,5.7-2.7,5.7s-17.6,8.4-26.3,12c-8.8,3.7-14.5,1.2-20-1.6
		c-5.5-2.9-9.6-2-9.6-2s-0.8,1.6-7.4,3.9c-6.5,2.2-11.4,0-11.4,0s-27.6-12-33.7-14.1c-6.1-2,0-4.9,0-4.9l8.8-3.9
		c4.9-0.8,1.8-3.5,1.8-3.5s-2.9-1.6-10-4.1c-7.1-2.5-0.6-5.1-0.6-5.1s23.9-10.6,31.7-13.7c7.8-3.1,11.2-0.4,11.2-0.4s6.1,2.5,10,3.9
		c3.9,1.4,7.4-0.2,7.4-0.2l8.4-4.3c6.5-1.8,10.4,1,10.4,1s27.4,12.9,33.3,14.9C477.5,412.8,472,414.9,472,414.9z M290.8,386
		c0,0,2.5-13.8,11.6-16.8c9.2-3.1,113-49.9,113-49.9s4.3-4,15.3,1.2c11,5.2,18.1,10.1,18.1,10.1s7.7,2.8,5.5,12.3
		c-2.1,9.5-5.8,22.6-5.8,22.6s-0.9,8.1-12.3,1.3c-11.3-6.7-11.3-6.7-11.3-6.7s-3.1-3.7-13.5,1.5c-10.4,5.2-76.6,36.5-76.6,36.5
		s-6.7,0.6-7,8.6c-0.3,8,0.6,13.1,0.6,13.1s-3.7,10.1-12.6,6.5c-8.9-3.7-25.1-13.2-25.1-13.2V386z M207,460.4
		c0,0,102.2,42.3,115.6,48.4c13.5,6.1,30.6-0.3,30.6-0.3l72.3-33.1l145.2-66.5C591.6,402.2,602,393,602,393s3.1-0.3,3.1,2.5
		c0,2.8-14.7,10.7-14.7,10.7S368,507.3,352.3,513.7c-15.6,6.4-33.4-1.8-33.4-1.8l-112-47.9V460.4z"/>
	<path d="M323.8,413.8c0,0,0,0,0.9-9.2c0.9-9.2,8-11.7,8-11.7s92.5-43.2,100.2-46.6c7.7-3.4,3.1,4.6,3.1,4.6s0,0-5.5,1.5
		c-5.5,1.5-1.2,5.5-1.2,5.5s1.5,1.2,8.3,4.3c6.7,3.1,8.6-1.2,8.6-1.2s3.4-11.3,4.3-18.7c0.9-7.4-3.7-9.2-3.7-9.2s-7.4-4.6-15.9-8.6
		c-8.6-4-15.3,0-15.3,0S311,371.6,303.3,375.5c-7.7,4-7.4,8.6-7.4,8.6l-1.2,26.6c0,0,11,8,21.4,9.7
		C326.6,422.2,323.8,413.8,323.8,413.8z"/>
</g>
<path d="M776.9,569.4c0,0-66.2-31.6-79.9-38c-13.8-6.4-16.8-1.8-16.8-1.8l-154.4,72.6c-11.3,13.2,0,30.9,0,30.9l82.4,40.7
	c17.5,7.2,26.4,1.1,26.4,1.1l144.7-68.2l-0.2-7.5l-0.9,0.1l0.3-14.1l1.5-1.8V578v-4.9L776.9,569.4z M622.7,576.1
	c0,0,17.7-7.8,23.4-10.1c5.7-2.3,8.3-0.3,8.3-0.3s4.5,1.8,7.4,2.9c2.9,1.1,5.4-0.2,5.4-0.2l6.2-3.2c4.8-1.4,7.7,0.8,7.7,0.8
	s20.2,9.5,24.6,11c4.4,1.5,0.3,3,0.3,3s0.8-0.5-5.6,2.4c-6.3,2.9-2.1,4.2-2.1,4.2s0.8,0.3,6.5,2.4c5.7,2.1-2,4.2-2,4.2
	s-13,6.2-19.5,8.9c-6.5,2.7-10.7,0.9-14.8-1.2c-4.1-2.1-7.1-1.5-7.1-1.5s-0.6,1.2-5.4,2.9c-4.8,1.7-8.4,0-8.4,0s-20.4-8.9-24.9-10.4
	c-4.5-1.5,0-3.6,0-3.6l6.5-2.9c3.6-0.6,1.4-2.6,1.4-2.6s-2.1-1.2-7.4-3C617.9,578,622.7,576.1,622.7,576.1z M537.3,604.5
	c0,0-3.7-4.2,2.3-3.1c6,1.1,74.9,36.2,74.9,36.2s7.5,4.4,20.4-0.5c12.9-4.9,136.5-63.2,136.5-63.2v4.5l-140.4,65.7
	c0,0-1.9,3.2-9.9,0C613,640.9,537.3,604.5,537.3,604.5z M773.2,602.7L623.1,676v-3.5l150.1-73.1V602.7z M774.2,595.2l-153.6,73.9
	v-2.9l153.6-74.5V595.2z M774.2,586.8l-150.1,73.1v-2.9l150.1-72.9V586.8z"/>
</svg>
