<?xml version="1.0" encoding="utf-8"?>
<!-- Generator: Adobe Illustrator 24.1.3, SVG Export Plug-In . SVG Version: 6.00 Build 0)  -->
<svg version="1.0" id="Layer_2" xmlns="http://www.w3.org/2000/svg" xmlns:xlink="http://www.w3.org/1999/xlink" width="800px" height="800px" x="0px" y="0px"
	 viewBox="0 0 800 800" style="enable-background:new 0 0 800 800;" xml:space="preserve">
<path d="M413.8,169.1C352.4,187.5,224,268,224,268c-6.9,17.5,25.8,42.3,25.8,42.3c36.8-25.8,131.1-69.9,131.1-69.9
	c0.9-12.9,35.9-62.1,37.3-67.2C419.5,168.2,413.8,169.1,413.8,169.1z M230.9,283.6c0,0-6.4-19.8,6-6.9
	c12.4,12.9,12.4,26.2,12.4,26.2S246.1,307.6,230.9,283.6z"/>
<path d="M461.3,205.9l49.2-76.4l81-24.4c0,0,23,16.6,15.6,50.4L461.3,205.9z"/>
<path d="M459,30.3c0,0-3.7,4.8-11.7,18.9c-8,14.1-18.1,11-18.1,11L230,68.5c-6.7,23.6,19.6,28.5,19.6,28.5h18.1
	c8.3,2.8,2.8,6.1,2.8,6.1l-65.9,39.6c1.2,4.3,10.1,11.7,10.1,11.7c17.2,11.7,26.7,0.9,26.7,0.9l71.8-42.6c10.7-0.6,4.6,7.1,4.6,7.1
	S279,144.9,268.3,151c-10.7,6.1-15,11.8-15,11.8l-40.2,52.3c18.1,19.9,37.7-1.5,37.7-1.5l9.5-12c0,0,4-4.3,8.3-10.1
	c4.3-5.8,12.6-11.3,12.6-11.3l46.2-29.6c0,0,2.2-0.9,3.1-3.7c0.8-2.8,5.1-4.3,5.1-4.3c4,0.8,6.4-0.6,6.4-0.6s2-1.8,7.1-5.1
	c5.1-3.2,7.8,0,7.8,0s52.4,20.7,63,25.9c10.6,5.2,4.6,14.6,4.6,14.6s-13.3,22.1-31.3,52.4c-17.9,30.4,9.2,53.8,9.2,53.8L568.8,30.3
	H459z M274.3,169.1h9.7v7.1l-19.3-1.5l2.1-19.1h3.7v8.7c4.3-10.5,15.3-16.6,15.3-16.6l2.8,5.2C284.2,154.7,274.3,169.1,274.3,169.1z
	 M318.3,143.4c0,0-13.2-0.9-21.5,4.3l-2.5-5.8c0,0,11.4-7.5,26.3-3.4L318.3,143.4z M336,132.6l-4.9-1.8c4.9-8,2.5-22.4,2.5-22.4
	l5.5-1.2C341,121.3,336,132.6,336,132.6z M341,86.6l-9.8-5.2c0,0,7.7,10.5,6.7,18.4l-4.9,1.8c0,0-3.7-14.7-6.4-17.8
	c0,0-4.3,2.5-4.3,8.9l-5.5-1.8c0,0,4-13.8,8.1-19.3l18.9,8.6L341,86.6z M370.7,114.8c0,0-16.3,2.5-22.4,15.9l-4.6-3.1
	c0,0,2.1-17.2,27-20.5V114.8z M407.5,119c0,0-15.9-4.8-26.4-4.4v-7.4c0,0,15.3-0.9,28.2,5.2L407.5,119z M417,121.3v-6.1
	c18.1,2.5,29.1,0,29.1,0l1.2,6.1C432,125.9,417,121.3,417,121.3z M478.9,97.7c-7.4,14.7-22.4,19.9-22.4,19.9l-3.4-4.5
	c19.6-13.7,20.5-19.4,20.5-19.4l-12.4,1.2v-6.1l22.5-2.1l2.5,24.2l-5.8,0.6L478.9,97.7z"/>
<path d="M349.8,196.5c0,0,0-1.6-3.5-1c-3.5,0.6-8.3,2.9-8.3,2.9s-5.7-0.6-0.8-4.1c0,0,5.4,0.5,11-0.8c0,0-1.1-1.7-4.6-2.6
	s-0.5-4.4,1.7-3.5s6.3,3.5,7.1,5.4c0.8,2-21.3-47.2-21.3-47.2l2.2-1.9l23.8,48.3c0,0,0.2-8.1,3.8-11.2c3.7-3.1,2.6,1.7,2.6,1.7
	s-3.6,2.7-3.5,5.8s10.6-8,10.6-8s4.6-1.8,2.9,1.8c0,0-10,4.4-11.4,8.3L349.8,196.5z"/>
<path d="M332.2,155.5l-3.7,7.2c0,0-0.4,8.6,3.7,1.4V155.5z"/>
<path d="M345.2,148.6l7.3,5.1c0,0,3.1,1.2,2.2-2.5l-9.5-3.4V148.6z"/>
<polygon points="55,740.9 55,645.8 80.1,638.9 122.5,716.7 "/>
<path d="M81,624.2l56.2,103.8l66.6-47.6l55.3-22.5c0,0,34.6-33.7,62.5-51.1s20.5-30.1,20.5-30.1s0.6-13-36.6-7.2
	c0,0-21.6,6.9-34.3,19.9c-12.7,13-26.5,11.8-10.4-7.8c0,0,16.9-21.8,35.5-18.7c18.6,3,3,2.2,4.8,1.7s32.4-40.1,32.4-40.1
	s-8.1-8.6-54.8,0c0,0-37.5,0.6-43.8,0.6c-6.3,0-45,2.9-79.6,38S130.5,605.1,81,624.2z"/>
<path d="M744.5,658.2c-38.6-8.6-120.5,6.3-187.4,20.8c-66.9,14.4-194.9,40.4-194.9,40.4c-26.5,10.4,11,54.4,11,54.4
	s130.3-15.2,200.6-41.2c70.3-25.9,170.6-23.1,170.6-23.1C758.9,682.4,744.5,658.2,744.5,658.2z M385.9,755.6
	c-1.2,11.5-3.4,16.7-17.9,0c0,0-18.4-37.5,2.3-27.7C370.4,727.9,387.1,744.1,385.9,755.6z"/>
<path d="M697.2,500.2l-324.4-35.4l-44.1,55.8l5.8,2.6c0,0,28.1-37.6,32.4-42.8c4.3-5.2,3.5,2.8,3.5,2.8l-61.2,82.2
	c41.5-8.8,38,15.6,36.8,25.1c-1.3,9.5-35,29-35,29l196.3,20.8l5.6-0.9l2.2-73.9l11.2,80.9l51.6,5.6c0,0,122.2-130,129.7-139.2
	C715.1,503.4,697.2,500.2,697.2,500.2z M463.6,574.4l-8.2,1.7c0,0-12.1-6.9,2.2-9.1S463.6,574.4,463.6,574.4z M543.6,595.6
	l-19.5-5.2l0.4-2.2l18.6,2.6c0,0,7.9,0-4.9-5.2c-12.8-5.2-11.5-13.8-4.6-20.3c6.9-6.5,16-9.1-6.1-9.5c-12-0.2-15.8-4.5-16.7-8.4
	c-0.9,7.5-4.3,19.5-16.6,22.2c7.6,0.4,16.5,3.2,10,15.6l-4.8,13.4c0,0-2.6-3,0-9.9c2.6-6.9,9.5-17.7-9.9-13.8l-21.6-0.9v-4.3
	c0,0,31.1,2.3,40.1-27.6c0.5-1.8,1-3.6,1.4-5.6l2.3-13h3.9c0,0-1.7,28.1,8.2,28.1c9.9,0,20.8,0.5,35.9-5c0,0,8.2,1.9,0,6.2
	c-8.2,4.3-21.3,14.3-21.3,14.3s-16.3,8.2,5.3,18.2C565.2,595.2,543.6,595.6,543.6,595.6z M511.2,509.6c0,0,2.2-10.4,7.8,0l-1.7,8.6
	h-3.9L511.2,509.6z M563.3,619c0,0-9.7,3.9-8.1-0.9c1.6-4.8-1.2-15.3-1.2-15.3s7.9,4.2,9.3,8.8C564.6,616.3,563.3,619,563.3,619z
	 M578.6,599.7c-6.4,5.6-17.3-7.8-17.3-7.8l15.6-1.6C576.9,590.3,585,594,578.6,599.7z M587,548.6c-3.9,0.3-18.2-1.4-19.3-2.6
	c0,0,7.8-3.5,15.4-8.4C590.7,532.8,590.9,548.4,587,548.6z M697.1,511.7c-2.6,0-314.8-33.7-314.8-33.7s-6.9-1.3-2.6-4.8L697.1,507
	C697.1,507,699.7,511.7,697.1,511.7z"/>
<path d="M521,686.6l-6.2-110.4c0,0,8.7,105.1,13.6,110.4H521z"/>
<path d="M528.3,679.5c0,0,6.6-9.2,13.5-11.8s2.6,4.3,2.6,4.3S526,679.5,528.3,679.5z"/>
<path d="M515.6,681.5c0,0-7.7-11.8-12.1-13.3c-4.3-1.4,2-3.8,3.2-1.2C506.7,667.1,514.5,675.5,515.6,681.5z"/>
<path d="M509.4,681.5c0,0-7.3-7.2-18.8-6.6s1.2,4.6,1.2,4.6S504.5,680.1,509.4,681.5z"/>
</svg>
