<?xml version="1.0" encoding="utf-8"?>
<!-- Generator: Adobe Illustrator 25.2.3, SVG Export Plug-In . SVG Version: 6.00 Build 0)  -->
<svg version="1.0" id="Layer_2" xmlns="http://www.w3.org/2000/svg" xmlns:xlink="http://www.w3.org/1999/xlink" x="0px" y="0px"
	 width="800px" height="800px" viewBox="0 0 800 800" style="enable-background:new 0 0 800 800;" xml:space="preserve">
<path d="M305.1777344,438.9062195l5.4154968,0.8461914c0,0-0.2961731,5.0346985,3.9346924,9.1809082
	c4.230835,4.1462402,6.0924072,5.9231873,6.0924072,5.9231873s3.3423767,1.4385071,4.8654785-1.5653992l1.4384766-0.1269226
	v3.0039062c0,0-3.2154236,0.5076904,0,3.3846741v1.8192444h-1.9884949c0,0,0.1269226-2.2000427-1.142334-3.5115967
	l-1.4384766,0.0846252l-0.0422974,2.9615784l0.7192383,0.1692505l-0.1269226,0.2961426l0.6769409,0.2538452l-0.2115479,1.6077271
	h-0.5923157v1.142334h-0.5077209v0.7192383h-1.4807739l-0.0846252-0.4230652l-0.5500183-0.2961731l-0.2115479-1.1000061
	l0.8461914,0.0422974l-0.0423279-1.6923523l-0.6769409-0.16922l-0.0845947-1.7346497
	C319.9857178,459.7219849,305.7982788,453.5731506,305.1777344,438.9062195z"/>
<path d="M462.903656,129.7160492l-3.553833-9.6463852l-51.785675-75.3090591l-1.5230103,1.6923256l4.061554,22.677433
	l-7.9539185,17.6003189l3.5538635,10.8308716L375.40979,164.7474976L315.1624756,23.0987263h-49.1905823l31.4210815,79.0322342
	l2.7077332,2.8769455l0.16922,4.5692749l-2.0307312,0.8462296l4.7384644,9.8155823l3.3846741-1.8616562l31.9852905,63.1242523
	c0,0,1.5230103,1.5231323-0.1693115,4.5692749c-1.6923523,3.0462646-0.6769104,12.8618469,9.8155823,8.8001556l42.1392517,1.3539429
	c0,0-1.6359253,8.29245,6.7129211,16.5848846c0,0,1.4667358,3.9487762-0.4513245,10.7180786
	c-1.9179077,6.769455,2.7077637,15.9079895,2.7077637,15.9079895s6.1763306,10.3796997-3.1734314,19.6311646
	c-9.3499146,9.2514648-15.4423218,17.2618103-15.4423218,17.2618103l-4.1743469,6.3181152
	c0,0-8.8001404,11.8463135-24.9338684,12.9745178c-16.1335754,1.1283569-17.1490173,8.8001709-17.1490173,8.8001709h9.0259094
	c0,0,0.112793-2.9333496,15.456665-4.2871704c15.3438721-1.3539429,31.1389465-29.1082153,31.1389465-29.1082153
	s-0.1270447,15.9079895,11.1624146,17.0361938c11.2892761,1.1282349,14.5611572,9.9284058,14.5611572,9.9284058v4.6256409
	c0,0-2.4820251,4.4000854-5.8668213,4.4000854l-0.6769104,2.2564392c0,0,0.9026184,1.2411499,1.8051147,0
	c0.9026489-1.2409973,4.2872925-5.5282898,4.7386169-0.3383789l-1.0154419,1.6923218h2.4821777
	c0,0,0.112793-3.835968,2.0307007-5.1899109c1.9180603-1.3537903,2.3693848,1.5795288,2.3693848,1.5795288
	s2.2564392,2.7077637,2.2564392-1.1282043c0,0,0.112793-1.2410278-1.0154419-1.3538208
	c-1.1282043-0.112915-0.5641174-1.5795288-0.5641174-1.5795288l-2.0308228-1.8051147
	c0,0,0.4512939-14.2156677-15.1181641-16.6978149c-15.5696106-2.4820557-8.0104675-17.9387207-8.0104675-17.9387207
	l7.4463501-9.1386719c0,0,3.3846741-7.2206268,0.5641174-16.4721069
	c-2.8205566-9.2514648-5.0769958-13.8771362-2.3693848-26.7389832c0,0-0.3383789-2.7077637,5.3027344-9.477066l0.338501-11.7335052
	l3.3846741-11.620697c0,0,27.7542725,3.2154541,42.3084412-16.0773163
	C468.4883423,145.9624329,462.903656,129.7160492,462.903656,129.7160492z M316.1779175,124.3005524
	c0,0,0-3.2154617-1.8615417-3.723175c-1.8615112-0.5077133-3.2154541-5.2461777,1.0154419-7.1078339l-3.2154846-8.9693527
	c0,0-6.7692871,0.6769104-5.7539978-6.76931l-16.7540894-38.2469025l0.8462219-0.8460999l50.6009216,86.4784546
	l-1.3539429,26.9081879L316.1779175,124.3005524z M344.32724,192.7273712c-1.8070068,0-3.2718506-1.464859-3.2718506-3.2718658
	c0-1.8068695,1.4648438-3.2717285,3.2718506-3.2717285s3.2718506,1.464859,3.2718506,3.2717285
	C347.5990906,191.2625122,346.1342468,192.7273712,344.32724,192.7273712z M381.925293,189.0325317l-30.2082214-1.6077271
	c0,0-0.0281982-4.0899048-2.9333496-4.6258087l1.5794067-24.144043h1.3539429l14.2156372,24.144043
	c0,0,4.2872925,4.9641876,8.3488464,2.7077484l0.3667297-1.4665985l5.7538757,0.0845947
	c0,0,0.5077209,1.9094543,1.5231323,1.9701538V189.0325317z M400.2871094,205.9276123
	c-2.0250549,0-3.666626-1.641571-3.666626-3.6666412c0-2.0250854,1.641571-3.6667786,3.666626-3.6667786
	c2.0250854,0,3.6667786,1.6416931,3.6667786,3.6667786C403.9538879,204.2860413,402.3121948,205.9276123,400.2871094,205.9276123z"
	/>
<rect x="250.9051971" y="287.8434448" transform="matrix(0.4431408 -0.8964521 0.8964521 0.4431408 -178.4001007 482.9222717)" width="97.2151337" height="194.4302673"/>
<polygon points="317.3830261,294.3805847 233.9040527,298.4042358 407.8077393,384.3695984 491.2866821,380.3459167 "/>
<polygon points="491.2866821,380.3459167 407.8077393,384.3695984 365.1214905,471.7129211 451.2438354,462.0755615 "/>
<circle cx="327.3496704" cy="578.0893555" r="22.7502327"/>
<path d="M497.9214478,761.4194336l-43.2500305-27.0058594c0,0,9.9494934-2.4364624,8.3251648-14.010498
	c-1.6245117-11.5740356-15.8380127-10.5586548-15.8380127-10.5586548l-17.2593689,1.6243286
	c0,0,2.0305176-42.84375,2.4365234-51.9810791c0.4061584-9.1373291-4.8731995-16.2442017-4.8731995-16.2442017
	s-42.0317078-45.8895264-48.9353943-52.5903931c-6.9038391-6.7006836-15.2288513-2.4365234-15.2288513-2.4365234
	L253.4473267,644.867981c0,0-8.1220093,8.1220093-2.8426666,17.0562134
	c5.2793274,8.9343262,15.0258331,4.873291,15.0258331,4.873291l50.3567505-23.960144l-41.8285522,55.2300415
	c0,0-6.4976807,10.1526489,2.4364929,17.0563354c8.9343567,6.9036865,17.056366-1.2183228,17.056366-1.2183228
	l58.8848877-77.1596069l33.3005371,36.1432495l-31.6760254,57.6665649c0,0-4.0610046,2.8428345,0.4060059,11.3709717
	c4.4671631,8.5281982,12.3496094,6.0915527,12.3496094,6.0915527l46.9414673-6.9038696l70.6619263,42.2347412
	c0,0,9.3404846,2.4366455,15.4320068-5.2793579C506.043457,770.3538208,497.9214478,761.4194336,497.9214478,761.4194336z
	 M403.2993469,715.9359131l-12.9951782,2.4366455l15.4318542-27.6150513L403.2993469,715.9359131z"/>
<line style="fill:none;stroke:#000000;stroke-miterlimit:10;" x1="522.3047485" y1="675.4172974" x2="644.1530762" y2="675.4172974"/>
<line style="fill:none;stroke:#000000;stroke-miterlimit:10;" x1="502.2174072" y1="694.9718018" x2="571.4391479" y2="694.9718018"/>
<line style="fill:none;stroke:#000000;stroke-miterlimit:10;" x1="512.8881226" y1="684.6945801" x2="581.1981201" y2="684.6945801"/>
<line style="fill:none;stroke:#000000;stroke-miterlimit:10;" x1="491.2866821" y1="705.2966919" x2="547.0431519" y2="705.2966919"/>
<line style="fill:none;stroke:#000000;stroke-miterlimit:10;" x1="427.993103" y1="310.3537292" x2="438.0595093" y2="300.224762"/>
<line style="fill:none;stroke:#000000;stroke-miterlimit:10;" x1="432.3106689" y1="314.4701233" x2="445.7084351" y2="308.0010071"/>
<line style="fill:none;stroke:#000000;stroke-miterlimit:10;" x1="433.4963074" y1="321.0292664" x2="447.7160645" y2="319.71521"/>
</svg>
