<?xml version="1.0" encoding="utf-8"?>
<!-- Generator: Adobe Illustrator 24.1.3, SVG Export Plug-In . SVG Version: 6.00 Build 0)  -->
<svg version="1.0" id="Layer_2" xmlns="http://www.w3.org/2000/svg" xmlns:xlink="http://www.w3.org/1999/xlink" x="0px" y="0px"
	 width="800px" height="800px" viewBox="0 0 800 800" style="enable-background:new 0 0 800 800;" xml:space="preserve">
<g>
	<path style="fill:#010101;" d="M622,520.5l-219.8,73.4c0,0-12.2,9.8-32.7-5.3S220.5,486.1,220.5,486.1l-33.9,22.2
		c0,0-29.9,9.7-50,2c-17.8-6.9-124.9-45.9-124.9-45.9S2.3,437,29.9,433.4l125.3,37.1l151.1-107.4L328,257.5c0,0,18.8-19.3,33,2.2
		l-17.2,100.8c0,0-3.5,21.6-7.5,27c-15.9,21.4-20.9,27.5-20.9,27.5l67.8,46.4l13.7-84.9c0,0,6.5-20.7,21.3-20.2
		s135.9,21.4,135.9,21.4s26.9,22.4-7.4,45.5l-104.3-16.9L421,534.2l186.5-55.8C607.5,478.4,641.9,489.6,622,520.5z"/>
	<circle style="fill:#010101;" cx="198.1" cy="376.9" r="37.2"/>
</g>
<path style="fill:#010101;" d="M781.3,216.4v29.3h-3.9v6.5c0,0-24.9,0-32.5,0c-7.7,0-7.2,9.2-7.2,9.2s-0.1,161.2,0,169.8
	c0.1,8.6,9,7.5,9,7.5h29.4l-0.1,7.5h4.4v5.4h-95.6v85.7h-82.4v98.5H614v-87h82.8v-85.5h94.4V216.4H781.3z M782.2,416.7
	c0,0-3.4,8.8-8,9.4c-4.6,0.6-22,0-22,0s-3.3,0.8-3.1-6.3c0.2-7.1,0-151.9,0-151.9s0.2-4.4,5.4-4.4c5.2,0,18.7,0,18.7,0
	s9.2,1.1,9,12.4C782,287.2,782.2,416.7,782.2,416.7z"/>
<line style="fill:#FFFFFF;stroke:#000000;stroke-miterlimit:10;" x1="10.7" y1="291.6" x2="10.7" y2="411.5"/>
<line style="fill:none;stroke:#000000;stroke-miterlimit:10;" x1="45.2" y1="263.5" x2="45.2" y2="386.5"/>
<line style="fill:none;stroke:#000000;stroke-miterlimit:10;" x1="189" y1="331.4" x2="189" y2="227"/>
<line style="fill:none;stroke:#000000;stroke-miterlimit:10;" x1="210.5" y1="201.3" x2="210.5" y2="331.4"/>
<line style="fill:none;stroke:#000000;stroke-miterlimit:10;" x1="371.1" y1="186" x2="371.1" y2="239.6"/>
<line style="fill:none;stroke:#000000;stroke-miterlimit:10;" x1="401.7" y1="279.2" x2="401.7" y2="351.5"/>
<line style="fill:none;stroke:#000000;stroke-miterlimit:10;" x1="427.7" y1="315.4" x2="427.7" y2="351.5"/>
<line style="fill:none;stroke:#000000;stroke-miterlimit:10;" x1="559.3" y1="212.8" x2="559.3" y2="369.6"/>
<line style="fill:none;stroke:#000000;stroke-miterlimit:10;" x1="614.4" y1="186" x2="614.4" y2="414.1"/>
<line style="fill:none;stroke:#000000;stroke-miterlimit:10;" x1="628.2" y1="251.8" x2="628.2" y2="473.7"/>
</svg>
