<?xml version="1.0" encoding="utf-8"?>
<!-- Generator: Adobe Illustrator 24.1.3, SVG Export Plug-In . SVG Version: 6.00 Build 0)  -->
<svg version="1.0" id="Layer_2" xmlns="http://www.w3.org/2000/svg" xmlns:xlink="http://www.w3.org/1999/xlink" x="0px" y="0px"
	 width="800px" height="800px" viewBox="0 0 800 800" style="enable-background:new 0 0 800 800;" xml:space="preserve">
<path d="M299.7,313.5l-27.5-30.2c0,0-5.9-6.2-12.2-8.8s-19.8-9.6-19.8-9.6s-8-6.4,2.7-6.7h2.6c0,0,4.1-0.4,0.5-2.7
	c-3.5-2.2-9-6.8-6.8-9c2.1-2.1,5.2-0.9,6.4-0.6c1.2,0.2,4.9,1.8,4.9,1.8s4.6,1.8,1.8-1.5c-2.8-3.3-9.2-11.2-9.2-11.2
	s-1.4-7.5,6.3-5.1l12.5,12.5c0,0,4.4,3.3,2.3-1.4l-6.9-12.1c0,0-3.3-6.9,4.6-4.7c0,0,9.5,10.7,16.3,13.4c6.8,2.8,5.5-0.3,5.5-0.3
	s-8.3-10.2-3.1-13.6c5.2-3.4,6.7,1,6.7,1s8.9,21.2,12.8,24.6c3.9,3.4,31.1,8.1,31.1,8.1s2.1,2.6,0,7.5c-2.1,4.9-28.3,45.9-28.3,45.9
	S302.1,313.8,299.7,313.5z"/>
<path d="M312.3,303.8l18.1-29.9c0,0,0.4-2.1,5.3,0s25.6,13.2,25.6,13.2s6.4,3,12.8-0.9c6.4-3.8,59.5-33.3,59.5-33.3s2.4-1.1,6.3-1.1
	c3.9,0.1,54.7,0,54.7,0s4.3-0.2,7.5,2.6c3.2,2.8,71.7,76.8,71.7,76.8s10.9,17.5,1.9,27.1S536,395.9,536,395.9s-3.2,5.5-11.3-1.7
	l-19.3-21.5c0,0-1.7-2.8,1.4-5.3c3.1-2.6,20.7-19.2,20.7-19.2s3.8-3,0-8.1c-3.8-5.1-18-17.6-18-17.6s-2.2-1.1-2.3,4.3
	c-0.1,5.3,0.1,33.5,0.1,33.5s0.2,1.5-2,2.8l-3.2,2.7c0,0-1.1,0.6-3.9-1.5c-2.9-2.1-4.8-4.2-4.8-4.2s-0.5-1.3-2.5,2.7
	c-1.9,3.9-12.3,21.5-12.3,21.5s-1.6,4.2-4.2,4.1s-25.1,6.2-25.1,6.2s-8.5,2.5-8.2,6.6s1.4,5.7,5.2,7.4c3.8,1.7,0.7,5.7,0.7,5.7
	l-10,5.3c0,0-2.2,3-2.3,4.9c-0.1,1.9,2,6.6,5.4,7.1c3.4,0.5,1.9,3.9,1.9,3.9l-2.6,0.9c0,0-2.2,7.4,1.9,7.6l-27.8,48.1
	c0,0-2.9,4.3-3.7,12.7c-0.9,8.4-3.3,90.2-3.3,90.2s0.2,5.3-4.1,5.5c-4.3,0.2-34.4,0-34.4,0s-3.9-1.7-3.1-6.9
	c0.9-5.2,3.1-103.5,3.1-103.5s1.7-9.7,6.4-16.5c4.7-6.8,46.9-77,46.9-77l0.7-78.9c0,0,0.4-10.8-9.4-3.7c-9.8,7-40.5,21-40.5,21
	s-11.6,3.1-20.4-3.4s-38.5-21.8-38.5-21.8S308.4,307,312.3,303.8z"/>
<path d="M481.4,386.6l0.2-0.3l9.9-18c0,0,2.1-5,6.9,0c4.8,5,34.1,36.9,34.1,36.9s3.8,4.3,0,6.6s-33.4,17-33.4,17s-5.6,2.1-8.3,5.8
	S475,454.1,475,454.1s-9,5-6.1-5.1l1.1-4.8l-1.7-0.6l-4.5,5.4c0,0-9.1,3-6.2-5.4l5.1-5.3c0,0,3.2-6.2-2.9-2.7
	c-6.1,3.5-9.3,4.3-9.3,4.3s-7.5,2.2-7.2-1.6c0.3-3.8,5.6-7.2,5.6-7.2l5.9-2.7c0,0,3-5-2.9-3s-8.6,2.9-8.6,2.9s-9.4-1.6-0.8-8.8
	c0,0,12.3-6.4,14.6-8.7c2.2-2.3,3.2-4.9-1-4.1s-20-1.4-8.5-9.6c0,0,19.2-1.8,25.9-5C480.3,388.8,481.4,386.6,481.4,386.6z"/>
<path d="M459,471.7l0.4-11.9c0,0,0.2-3.2,0.9-4.5c0.6-1.3,5.4-6.1,6.2,0.9s7.7,1.9,7.7,1.9s10.7-9.1,16.5-17.3
	c5.9-8.2,13.5-10,13.5-10l-1.6,38.5L497.4,594c0,0,1.5,7.7-7.9,7.7c-9.4,0-30.5-1.3-30.5-1.3s-2.1,0.2-2.1-5.1
	C456.9,590,459,471.7,459,471.7z"/>
<path d="M420.6,632c0,0-1.1-3.8,3.3-4.6s19.4-0.4,28.7-16.4c0,0,0.9-4.8,11.6-5.5l31.2,0.7c0,0,6.6,6.4,3.4,12.5
	c-3.2,6.1-2.2,13.6-2.2,14C496.6,633.2,420.6,632,420.6,632z"/>
<path d="M328.3,632c0,0-1.1-3.8,3.3-4.6S351,627,360.3,611c0,0,0.9-4.8,11.6-5.5l31.2,0.7c0,0,6.6,6.4,3.4,12.5s-2.2,13.6-2.2,14
	C404.3,633.2,328.3,632,328.3,632z"/>
<circle cx="466.8" cy="208.6" r="9.5"/>
<path d="M503.8,158.5c0,0-9.1-19.7-40.3-20.8c-31.2-1.1-43.6,34.6-43.6,34.6s-3.9,6.1-15.9,10.7c-11.9,4.6-2.6,9.9-2.6,9.9l18.3,0.1
	c0,0,1.6-1.2-2,7.4c-3.6,8.5,3.9,11.2,3.9,11.2c-5.5,6.4-1.1,10-1.1,10l6.6,1.5c0,0-1.1,0.2,0,12.8c1.1,12.6,15.6,13,15.6,13h42.4
	c13.4-3.2,16.6-16.2,16.6-16.2v-35.4h-23.2c-1.4,3.4,2.5,9.8,2.5,9.8s1,13.2-12.6,15s-15.6-11.8-15.6-11.8h-29.9
	c-9-1.4-0.7-16.9-0.7-16.9l1.8,0.5l-0.2,4.1c-4.5,6,0.5,9.4,0.5,9.4l28.8-0.5c0,0,0.7-5.8,3.6-7.7c2.9-1.9-0.9-2.8-0.9-2.8
	s-8.7-0.6-11.6-0.4c-2.9,0.2-3.5,2.7-3.5,2.7l-3.9,0.1c-1.3-2.9-8.8-2.3-8.8-2.3v-2.9l80.4,0.7C523.1,190.7,503.8,158.5,503.8,158.5
	z M429.8,180.6c0,0,10.3-30.8,36.6-30c26.2,0.9,32.8,30,32.8,30H429.8z"/>
<path d="M184.8,210.8c-9.9-3.2-10.6-8.3-10.6-8.3l-1.3-6.7c-12.2-38.7-40.9-43.8-72.1-40.6c-31.1,3.2-28.4,51.2-28.4,51.2
	c-28.8,16.6,62.4,24.3,62.4,24.3s4.8-2.2,12.5,1.3c7.7,3.5,21.8,0,21.8,0l15.7-10.9C184.8,221,194.7,214,184.8,210.8z M173.4,214.5
	c0,0-9.1,2.8-14.5,6.5c-5.4,3.7-9.8,1.8-9.8,1.8s-3.9,4.3-10.5,3.9c-6.5-0.4-32.4-2.2-32.4-2.2s-30.7-4.3-32.8-9.1
	c0,0,0.3-3.1-1.2-3.6c-1.5-0.5-0.5-3.2-0.5-3.2l2-2.5l0.2-12.3c0,0,4.2-26.9,16.3-32.1s44.1-1.4,55.3,11.2l5.8,6.4
	c0,0,0.6,3.5-4.2,1.3c-4.8-2.2-10.9-13.4-34.2-15.4c-23.4-1.9-31.7,8.1-31.7,8.1s-4.2,4.6-5.7,15.8c-1.5,11.2-1.8,16.4,1.9,17.5
	c0,0,4.4,4.5,0.7,6.2c-3.6,1.7-0.2,2.7-0.2,2.7s9,4.2,11.3,3.4c2.3-0.7,3.3,0.2,3.4-3.4c0.1-3.6,4.3-3.4,4.3-3.4l7.7-0.2
	c0,0,5,3.4,1.4,8.4c0,0-3,2.2,6.2,1.6l19.1,0.1c0,0-0.7-5.8,2.5-7.4c0,0,3.2,0.3,4.1-3.6l1.9-0.5l-0.5,3c0,0-8.2,3.4-4.7,8.5
	c0,0,9.7,3.1,13.4-3.1c3.7-6.2-3.8-7.4-3.8-7.4l1.2-2.3l3.3,0.4c0,0,0.6-6.4-1.7-13.8l2.3-1.1c0,0,2.5,14.6,2.1,19.3
	c-0.5,4.7,0.6,5.7,0.6,5.7s5.1,2.3,18.4-7.6C170.3,212.3,174.2,211.7,173.4,214.5z"/>
<path d="M177.3,328.1c-13.5-6.9-12.1-46.6-12.1-46.6c-3.2-6.9-22.5-8.6-22.5-8.6c-10.3-7.3-31.4-1.1-31.4-1.1
	c-9-1.7-17.5,5.1-17.5,5.1c1.7,26.4-22.5,51.2-22.5,51.2s12.7,33.2,18.1,51c5.4,17.8,10.9,17.6,10.9,17.6
	c12.5,5.4,29.1-2.1,29.1-2.1c3.5,5.1,15.5,5.3,24.3,3c8.8-2.2,12.5-10.3,12.5-10.3C180,361.4,177.3,328.1,177.3,328.1z M113.2,275.6
	c5.4-4.9,14.7-4.6,14.7-4.6s9.9,1.3,12.4,5.2c2.5,3.9-3.6,2.7-3.6,2.7l-19.2,0.3C117.4,279.2,107.7,280.5,113.2,275.6z M139.1,291.8
	c-2.2,9.2-7.1,19.4-7.1,19.4l-4.9,7.4l-5.3-8.1c0,0-7.1-11.4-7.3-20.7c-0.1-9.3,6.4-7.9,6.4-7.9l15-0.1
	C135.9,281.8,141.3,282.7,139.1,291.8z M126.4,389.6c0,0-1.3,4.2-6.3,4.5c-5,0.3-20.6,2.2-23.7-5.9c-3.1-8.2-20.3-59.8-20.3-59.8
	s19.1-19.6,21.4-50.9c0,0,1.9-1.1,4.7-1.4c0,0,8.6,41.9,16,48.7v16.6h-13.4c0,0-2.5,9.2,6.2,11.3h7.8l-0.6,15.1h-12.5
	c0,0-5.7,7,1,10.3l9.8,0.5l2.3,0.6v11.6c0,0,4.5-1.4,4.7-3.1h-2.2v-7.1h5V389.6z M126.2,338.2c-0.6-8.1,0-12.1,0-12.1l-2.4,0.4
	l-1,11.5l-1.3,2.2c0,0,0.4-15-0.8-17.8c-1.2-2.8-8.9-10.6-15.9-47.4c0,0,1.7-2.5,3.7-1.8c2,0.6,2,29.5,14.5,45.2l5.1,4.5
	c0,0,13.7-18,16-44.3c0,0,0.7-1.7,1.9-1.4c1.2,0.3-2.5,26.5-13.3,43.4l-1.6,3.8l-0.4,14.9C130.7,339.6,126.8,346.3,126.2,338.2z
	 M164.4,382.4c-10.5,15.1-15.2,13-27.6,13.5c0,0-9.4,0.4-7.3-13.9l2.7-0.1l-0.2,6.6c0,0,2.9,8.3,4.3,1.1c0,0-5.2-4.5,1.1-9.9
	c0,0,9.1-1.2,7.9-11.5L136,368c0,0-3.4-11.3,1-15.4h10.4l0.1-11.1l-13.9-0.5l-0.1-15.8c0,0,14.9-22.2,15.6-45.2
	c0,0,0.9-6.8,12.2,2.3c0,0,0.5,41.9,11.4,48.5C172.7,330.8,174.8,367.3,164.4,382.4z"/>
<path d="M165.6,504.6c-1.1-6.1-3.5-34.9-23.9-53.3c0,0-14.3-4.6-51.3-3.3c0,0-21.7,4.1-10.5,19.1c0,0-14.5,6.9-1.5,16.6
	c0,0,12.8,7.7,39.4,2.5c0,0-1.8,19,4.2,25.3s10.5,10.7,32.7,3.6C154.7,515.1,166.6,510.7,165.6,504.6z M157.6,497
	c0,0,0.3,2.6-2.5,2.6c0,0-11.7,5.4-21.9,3.8c0,0-5.5-0.3-4.2-3.8c0,0,19.7,0.8,24.6-3.4C158.7,491.9,157.6,497,157.6,497z
	 M155.1,491.7c-2.6,3.6-19.6,7.9-26.3,5.1c-6.7-2.8,0-4.8,0-4.8s16,1.3,24.3-4.5C153,487.5,157.6,488,155.1,491.7z M154.4,482.5
	c0,0-1,4.4-9.9,4.7c0,0-19.9,4.4-16.3-3.1c0,0-0.7-2,3.6-2.1c4.4-0.1,11.1,0,17.7-3.7C149.5,478.3,154.5,477.4,154.4,482.5z
	 M149.4,474.5c0,0-6.6,5.1-13.5,4.8c-6.9-0.3-6.7-1-6.7-1s0-3.8,4.2-5.1c0,0,9.7-0.6,14.2-2.8C152,468.2,149.4,474.5,149.4,474.5z
	 M137.4,459.4c2.9-1.3,5.7,2.4,5.7,2.4l2.6,3.3c0,0,0.9,2.3-2.8,3.9c-3.6,1.6-9.1,2.3-9.5,0C133.3,469,134.5,460.7,137.4,459.4z
	 M84.3,456.5c6.9-3.5,10.7-2.7,10.7-2.7s5.9-0.4,5.2,0.7c-0.6,1.2-6.8,1-6.8,1s-9.2,2.1-6.8,4.5c2.3,2.3,3.1,3.4,3.1,3.4
	s-0.8,2.4-2.3,1.5C87.3,464.9,77.3,460,84.3,456.5z M113.3,483.6l-17.9,0.5c0,0-7.8,0.5-14.9-4.4c-7.1-4.9,3.4-10.6,3.4-10.6
	c2.9-1.1,3.8,2.8,3.8,2.8c-6,3.5-0.6,7.3-0.6,7.3c2.2,3.2,25,2,28.5,2.1C119,481.4,113.3,483.6,113.3,483.6z M114.2,477.8l-20.2,0.5
	c0,0-7.7-0.6-5.2-3.7c2.5-3.1,7.7-1.2,7.7-1.2s7.1,1.7,7-3.9c-0.1-5.7-10.8-6.9-10.8-6.9s-3.1-2.7,1.6-3.5c4.7-0.9,24.9-1.9,30,0.9
	c0,0,3.7,1.1-2.6,5.2c0,0-4.7,6-2.8,10.3C121,479.8,114.2,477.8,114.2,477.8z M90,466.6c0,0,3.4-1.6,7.5-0.5c4.1,1.1,0,3.3,0,3.3
	S89.2,470.9,90,466.6z M156.8,504.9c-3,2.9-20,10.1-29.1,6.4c-9.1-3.7-15.9-23.4,2.6-53.6c0,0,3.7-3.9,4.7,0c0,0,0.4,1.3-1.9,3.9
	c-2.3,2.7-9.8,20-8.6,30.8c0,0-0.8,10.6,11.7,13.6c0,0,13-4.4,20.7-3.4C156.8,502.7,159.8,502,156.8,504.9z"/>
<path d="M129.3,570.8c-8.9,0.6-22.4,3.1-22.4,3.1s-22-1.9-26.8,14.1c0,0,5.2,32.2,21,29c0,0,16.1-2.1,25-18.1c0,0,4.4-6.7,7.1-0.5
	c2.8,6.2,2.7,13.8,17.2,12.8c14.5-1,22-15.1,21.8-26.3c-0.2-11.2-8-14.3-10.5-14.9c-2.6-0.6-7.2-3.3-11.6-1.7 M143.5,605.8
	c0,0-8.4,0-8.5-9.7c0,0-3.4-6.9-10.5,0.9c0,0-6.8,16.2-20.3,13.1c-13.4-3.1-23.4-18.2-1-28.6c0,0,15.8,0.6,17.9-2.9
	c0,0-3.9-3.2,2.8-3c6.7,0.2,9.7-0.6,10-1c0.3-0.3,4.7-1.6,4.4,0.4c-0.3,2-1.2,2.9,1.6,2.9c2.8,0,5-3,7.4-3.4
	c2.3-0.4,26.5,0.8,20.3,16.8C161.3,607.4,143.5,605.8,143.5,605.8z"/>
<path d="M148.2,598.5c0,0,6.5,0.3,11-9.9c0,0,3.4-1.9,2.2,1.6c-1.1,3.5-4.8,9.7-8.5,10.2C153,600.4,143.6,605.2,148.2,598.5z"/>
<path style="fill:none;stroke:#000000;stroke-width:5;stroke-miterlimit:10;" d="M80.2,590.4c0,0-29.8-7.5-26.8,15
	c3,22.5-45.2,11.2-32.4-8.1S51,553.7,94.6,552c43.6-1.7,79.7,4.1,78.2,15.7s-4.3,8.6-4.3,8.6"/>
<g>
	<path d="M666.9,629.7c0,0-5.5-0.5-2.8,5s25.7,12.2,43.5,11.3s21.2-6.4,21.2-6.4s6.5-5.2,11.4-6.1c0,0,2.9,0.5,5.2,3.8
		c0,0,14.3-0.9,21-7.6c0,0,2.7-6.2-1.2-12.4c0,0-4.6,6.2-20.4,8.4c0,0-10.5,2.3-18.5,7.6S689.6,640.2,666.9,629.7z"/>
	<g>
		<path d="M767.3,577.5c-0.4-2.3-4.9-1.6-4.9-1.6s-1.3,1.1-3.1,1.9c0,0,1.4-5.6-6.2-6.4c0,0-2.8-0.5-3.3-2.3h-13.2
			c0,0-3.2,1.2-4.4-1.7s-5.9-1.1-5.9-1.1s-0.5,0.5-0.5,1.1s-4.9,0.3-4.9,0.3s-1.9-0.3-2,1.9c-0.1,2.2-1.1,17.8-4.4,20.8
			c0,0-1.8,1.3-0.5,2.7c1.3,1.3,2.8,3.4,2.8,3.4s2.5-0.1,3.2,1.7c0.7,1.7-0.3,3.6-1.2,3.6c-0.9,0-4,0.7-3.8-2.1
			c0.1-1.3,0.2-1.8,0.3-1.9c-0.7-0.6-2.9-2.5-2.6-3.7c0.4-1.5-2.9,2.8-2.9,2.8s2.5-1.3,3.8,0.8c1.3,2.1-0.1,1.9-0.1,1.9
			s-3.9,0.3-4.5-1.2s-0.8,1.2-0.8,1.2s0.2-0.3,0.9,0.3c0.7,0.6,1.3,1.5,1.3,1.5s1.1-0.5,2.7,0.3c1.6,0.9,3.8,3,1.6,5.1
			c-2.2,2.1-5.2-1.4-5.2-1.4l-3.1-0.4l-2.3-1.1l-0.1,1.9l2.1,0.8c0,0,5-1.3,5.2,1.9c0.2,3.2-2.5,3.3-2.5,3.3s-3.5,0.3-3.8-2.2
			c-0.4-2.5-0.3-1.9-0.3-1.9l-2.6-0.5c0,0,0.7,3.6-2.3,4.4c0,0-1.5,3.2-23.6,4.4c0,0-15,6.1-3.3,12.7c11.7,6.7,38,6.5,42.9,4.8
			c0,0,8.6-0.5,17.1-6.6c8.4-6.1,19.6-6.1,19.6-6.1s10.7-1.6,11.5-6.1c0.7-4.5-1.7-16.7-3.5-20.6c-1.7-4-3.1-7.6-1.3-10.6
			c0,0,1.1-1.6,4-0.7C765.8,583.7,767.8,579.7,767.3,577.5z M743.6,575.4c-4.6,0.3-10.3-2-10-3.3l17.5-0.3
			C751.2,571.8,748.2,575,743.6,575.4z M766.1,579.3c-1.2,2.2-2.3,2.2-2.3,2.2s-4.2,0.9-4.3-1.2c0-0.5,0-0.8,0-1
			c-0.1,0.1-0.1,0.1-0.1,0.1s0.1-0.6,0.1-0.1c0.5-0.7,2.8-3.6,5.5-2.5C765,576.8,767.3,577.2,766.1,579.3z"/>
		<path d="M715.1,597.8c0.1,0.1,0.2,0.2,0.2,0.2S715.2,597.6,715.1,597.8z"/>
	</g>
</g>
<g>
	<path d="M644.7,594.1c0,0-5.5-0.5-2.8,5c2.7,5.5,25.7,12.2,43.5,11.3c17.9-0.9,21.2-6.4,21.2-6.4s6.5-5.2,11.4-6.1
		c0,0,2.9,0.5,5.2,3.8c0,0,14.3-0.9,21-7.6c0,0,2.7-6.2-1.2-12.4c0,0-4.6,6.2-20.4,8.4c0,0-10.5,2.3-18.5,7.6
		S667.4,604.7,644.7,594.1z"/>
	<g>
		<path d="M745.1,541.9c-0.4-2.3-4.9-1.6-4.9-1.6s-1.3,1.1-3.1,1.9c0,0,1.4-5.6-6.2-6.4c0,0-2.8-0.5-3.3-2.3h-13.2
			c0,0-3.2,1.2-4.4-1.7c-1.3-2.9-5.9-1.1-5.9-1.1s-0.5,0.5-0.5,1.1s-4.9,0.3-4.9,0.3s-1.9-0.3-2,1.9c-0.1,2.2-1.1,17.8-4.4,20.8
			c0,0-1.8,1.3-0.5,2.7c1.3,1.3,2.8,3.4,2.8,3.4s2.5-0.1,3.2,1.7c0.7,1.7-0.3,3.6-1.2,3.6s-4,0.7-3.8-2.1c0.1-1.3,0.2-1.8,0.3-1.9
			c-0.7-0.6-2.9-2.5-2.6-3.7c0.4-1.5-2.9,2.8-2.9,2.8s2.5-1.3,3.8,0.8c1.3,2.1-0.1,1.9-0.1,1.9s-3.9,0.3-4.5-1.2
			c-0.6-1.5-0.8,1.2-0.8,1.2s0.2-0.3,0.9,0.3c0.7,0.6,1.3,1.5,1.3,1.5s1.1-0.5,2.7,0.3c1.6,0.9,3.8,3,1.6,5.1
			c-2.2,2.1-5.2-1.4-5.2-1.4l-3.1-0.4l-2.3-1.1l-0.1,1.9l2.1,0.8c0,0,5-1.3,5.2,1.9c0.2,3.2-2.5,3.3-2.5,3.3s-3.5,0.3-3.8-2.2
			s-0.3-1.9-0.3-1.9l-2.6-0.5c0,0,0.7,3.6-2.3,4.4c0,0-1.5,3.2-23.6,4.4c0,0-15,6.1-3.3,12.7c11.7,6.7,38,6.5,42.9,4.8
			c0,0,8.6-0.5,17.1-6.6c8.4-6.1,19.6-6.1,19.6-6.1s10.7-1.6,11.5-6.1c0.7-4.5-1.7-16.7-3.5-20.6c-1.7-4-3.1-7.6-1.3-10.6
			c0,0,1.1-1.6,4-0.7C743.6,548.1,745.6,544.2,745.1,541.9z M721.4,539.8c-4.6,0.3-10.3-2-10-3.3l17.5-0.3
			C729,536.3,726,539.4,721.4,539.8z M743.9,543.8c-1.2,2.2-2.3,2.2-2.3,2.2s-4.2,0.9-4.3-1.2c0-0.5,0-0.8,0-1
			c-0.1,0.1-0.1,0.1-0.1,0.1s0.1-0.6,0.1-0.1c0.5-0.7,2.8-3.6,5.5-2.5C742.8,541.2,745.1,541.6,743.9,543.8z"/>
		<path d="M692.9,562.2c0.1,0.1,0.2,0.2,0.2,0.2S693,562.1,692.9,562.2z"/>
	</g>
</g>
<path d="M708.1,500.1c0,0-9.6-2.2-6.5-8.7s2.8-2.6,5-12.5c2.2-9.9,1.1-22.6-1.4-28.2s-18.5-41.4-17.9-45.7c0,0-2.6-12.4,0.7-17.8
	c3.3-5.4,7.9,10.4,7.9,10.4s1.2,13.1,4.2,18.6c3,5.4,5.6,6.8,6.1-3.8s-2.9-23.5-2.9-23.5S701,374,707,376.2c6,2.2,5.4,7.4,5.4,7.4
	s-3.8,2.3-3.4,6.5s-2.3,14,4.4,45.8c0,0,7.4,24.7-4,44.9l-6.6,10.6C702.8,491.3,699.7,495.6,708.1,500.1z"/>
<path d="M712.7,404.9c0,0-1.8-16.7,3.1-20.3s6.8,7,6.8,7v14.6c0,0-1.3,15.4,2.8,13.6c4.2-1.8,5.2-12.6,5.2-12.6l1.2-22.1
	c0,0,2.7-14.9,9.9-3.5c0,0,0.5,23.3-1.8,29.1s1,13.4,4.7,6.2c0,0,2.8-21.6,9.5-26.9c6.7-5.4,8.7,2.5,8.7,2.5s0.7,13.9-5.4,22.4
	s-0.5,13.6-0.5,13.6s6-4.4,7.5-15.1c1.5-10.7,6.4-10,8.9-10.5s3.7,2.6,2.5,6c-1.2,3.3-9.2,27.8-14.4,34.5
	c-5.2,6.7-4.5,17.2-4.5,17.2s-0.2,33.5,3.7,41.8c3.8,8.4-5.7,4-5.7,4s-39.4-2.3-45-9.9c-5.7-7.6,0-7.5,0-7.5s12.6-18.1,9.5-31.8
	C716.4,443.6,721.4,444.4,712.7,404.9z"/>
<path d="M725.1,410.6c0,0,1.8-11.5-1.2-25.3c0,0,0.6-7,4.4-4.2c3.8,2.8-0.8,29.5-0.8,29.5s-2.2,6.7-2.5,0.8"/>
<path d="M684.8,333.4v17.1c0,0,3.7-1.7,4.8,0c1.1,1.7,23.7,4.2,23.7,4.2s6,1.1,7.7-2c0,0,4-7.8,5.4-10c1.4-2.2,3.4-5.5,6.3-0.8
	s5.1,10,5.1,10s2.3,3.9,8.8,2.9c6.5-1,22-3.6,22-3.6s4-1.2,5.8,0l0.8-17.8c0,0-4.9-2.5-4.9-5.4c0-2.9-45-6.9-81.5-0.9
	C688.6,327.1,689.4,331.9,684.8,333.4z"/>
<path d="M683.5,330.3c0,0,2-4.9,2.3-7.7s55.2-15.8,87.5,0c0,0,0.8,3.5,2.6,7.7l-0.9,0.8c0,0-3.8-4.8-4.6-6.3c0,0-33.1-7.4-82.7-0.2
	C687.7,324.7,687.2,331.6,683.5,330.3z"/>
<path d="M685.5,321.1l28.8-28c0,0,7.1-3.4,11.1,0c4,3.4,4.5,4.2,4.5,4.2l-2.2,2.8l-6.3-4.9c0,0-2.9-1.7-7.2,2.3
	s-22.4,21.8-22.4,21.8L685.5,321.1z"/>
<path d="M775,321.1l-28.8-28c0,0-7.1-3.4-11.1,0c-4,3.4-4.5,4.2-4.5,4.2l2.2,2.8l6.3-4.9c0,0,2.9-1.7,7.2,2.3s22.4,21.8,22.4,21.8
	L775,321.1z"/>
<path style="fill:#231F20;" d="M693.7,235.5h-2.2l-10.3-38.6c0,0,3.4-6.5,4.9-13.5s1.3-14.4,1.3-14.4s5.4-4.5,6.3-6.1
	c0.9-1.6-0.7-6.1,2.2-7.4s34.6-21.3,70.5,0v5.8c0,0,1.8,3.4,8.5,7.2c0,0-3.6,15.1,3.6,22.1c0,0-2.7,23.8-6.7,44l-3.4,0.9l6.5-32.6
	l1.1-12.3c0,0-6.5-9.7-3.6-21.4l-7.9-5.8c0,0-24.9-16.8-63.6-0.7l-9.9,6.1c0,0-2.5,25.6-7.4,27.6L693.7,235.5z"/>
<path style="fill:#231F20;" d="M690.8,221.4l3.8-0.8c0,0-2.3-14.3,2.7-16.1l4.2-0.8l7.5,34.6c0,0-2.5,0.6-4.7,0
	c-2.2-0.6-8.4-8-9.3-13.1l-3.2,0.3L690.8,221.4z"/>
<path style="fill:#231F20;" d="M704.3,204.1c0,0-0.8-4,1.8-5.6c2.5-1.6,5.2-0.7,6.1,0.7s9.5,36.3,9.5,36.3s1.1,4.5-3.5,5.1
	S713,238,713,238L704.3,204.1z"/>
<path style="fill:#231F20;" d="M739.7,230.5l9.2-30.7c0,0,1.4-1.9,3.8-2.2c2.4-0.2,3.9,1.7,4,2.3c0.2,0.6-8.5,33.8-8.5,33.8
	s-1,5.2-4.7,5.3c-3.7,0.1-5.5-2.1-4.8-5C739.3,231.2,739.7,230.5,739.7,230.5z"/>
<path style="fill:#231F20;" d="M759.5,204.3l-8.6,32.8c0,0,5.8,4,9.7-0.7l5.1-10.9l4.3-0.3l0.8-4.1l-4.6-0.3c0,0,2.3-11.3-0.3-14.4
	C763.3,203.3,763.5,203.1,759.5,204.3z"/>
</svg>
