<?xml version="1.0" encoding="utf-8"?>
<!-- Generator: Adobe Illustrator 24.1.3, SVG Export Plug-In . SVG Version: 6.00 Build 0)  -->
<svg version="1.0" id="Layer_1" xmlns="http://www.w3.org/2000/svg" xmlns:xlink="http://www.w3.org/1999/xlink" width="800px" height="800px" x="0px" y="0px"
	 viewBox="0 0 800 800" style="enable-background:new 0 0 800 800;" xml:space="preserve">
<path d="M436.6,450.9l107.9-102.2c0,0,8.3-11.5,30.2-12c21.9-0.5,105.3,0,105.3,0s18.8,0.5,26.6,20.3S772.8,540,772.8,540
	s11.5,45.3-24.5,45.9S520,589.5,520,589.5h-43.3c0,0-7.4,0.4-7.3-5.2c0.1-5.6,5.3-5.2,5.3-5.2l33.2-0.3l0.5-5.1l-43.8,0.5
	c0,0-3.9-1.2-3.9-5.1c0-3.9,1-5.2,2.9-5.3c1.8-0.1,39-0.9,39-0.9v-7.2h-43.6c0,0-5.2,0.3-5.2-6c0-6.3,3.3-6,3.3-6h46v-5.2l-38.7-0.1
	c0,0-4.8-0.7-4.4-6.5s4.7-5.6,4.7-5.6h39v-6.3c0,0,19.7-2.6,19.7,8.5h169.3c0,0,9-1.8,4-12c-5-10.2-22.4-65.5-22.4-65.5l-9.9-30.5
	c0,0-3.4-5.3-5.2-4.4s-3.8,2.1-1.4,7c2.3,5,30.4,90.2,30.4,90.2s4,8.7-7.7,8.7c-11.7,0-145.3,0-145.3,0l-0.4-62.5c0,0-0.4-7.4-6.9-2
	c-6.5,5.5-20.7,19.2-20.7,19.2v-25.1L436.6,450.9z"/>
<path d="M662.4,170.7c0,0-68.4-45.7-114.1,33.6c0,0-4.3,17.6-4.7,19.2c-0.4,1.6,2.3,31.3-7.8,52.4c0,0,2,3.9,12.5,2.7
	c0,0,7-1.3,6.6,1.2c0,0,0,45,48.5,46.5c48.5,1.6,72.7-28.5,72.7-28.5S735.9,230.5,662.4,170.7z M580.3,230.5c-4,0-7.3-3.3-7.3-7.3
	c0-4,3.3-7.3,7.3-7.3c4,0,7.3,3.3,7.3,7.3C587.6,227.3,584.3,230.5,580.3,230.5z"/>
<path d="M540.9,602.5c0,0-0.2-6.3,5.7-7.2s155.8,0,155.8,0s4.9,0.6,4.7,5.9c-0.2,5.3,0,75.8,0,75.8s1,6.1-6.3,6.4
	c-7.2,0.4-155.8,0-155.8,0s-5.1-0.4-5.1-6.6C539.9,670.5,540.9,602.5,540.9,602.5z"/>
<path d="M261,488.7c0,0,10.7-9.6,19-3.1c8.3,6.5,32.8,28.4,32.8,28.4s1.6,8.6-5,8.6l-19.5-13l-1.4,4.7l22.5,16.4
	c0,0,6.8,9.4-4.2,9.9L287,527.2v4.7l20.9,15.1c0,0,3.6,6.3-3.9,6.8l-18.2-12.5l-0.3,3.6l17.2,14.1c0,0,2.9,9.9-7,8.3l-36-28.4
	c0,0-2.3-3.6-2.3-7s1.3-41.2,1.3-41.2L261,488.7z"/>
<path d="M503.6,467c-0.8-4.5-4.9-10.6-4.9-10.6c-114.3-3.9-144.5,5.7-144.5,5.7c-4.5-13.7-81.8-78-81.8-78l-9.4,7l11.3,92.1
	c4.4,35.8,9.8,93,9.8,93c15.2,2.7,79,69.4,79,69.4c2.9,5.3,6.4,3.3,6.4,3.3c22.3-5.5,145.2-4.7,148.3-5.3c3.1-0.6,6.6-3.1,6.6-3.1
	S504.3,471.5,503.6,467z M359.1,474.8c10.2,0,97.3-12.1,130.6-9c0,0,6.3,3.1,7,12.1c0.8,9,5.1,47.4,5.1,47.4h-39.5
	c0,0-1.6-1.7-2.3,6.5c0,0-71.5,3.5-91.1,5.5c0,0-13.7,2.8-14.5-5.1l-5.1-51.2C349.3,481.1,349,474.8,359.1,474.8z M354.6,630.7
	c-3.1-3.6-49.5-46.4-59.4-51.3c-9.9-5-8.3-7.3-8.3-7.3v-7.3l1.4-2.1c0,0,8.5,6.8,13,5.6c4.4-1.2,2.1-10,2.1-10l-17.7-14.5l0.8-1.2
	l17.4,12.6c0,0,3.3,0.1,5.5-2.8c2.2-2.9-0.6-5.9-0.6-5.9l-20.5-14.1l0.2-2.9l19.5,12.3c7.7-0.3,4.2-10,4.2-10l2.3,0.5
	c5,1.6,40.4,37.5,41.4,42.2c1,4.7,6.3,42.2,6.5,56.3C362.6,644.8,357.7,634.3,354.6,630.7z M516,635.4c-0.7,9-2.3,5.3-2.3,5.3
	s-134.2,0.4-144.2,2.6c0,0-4,0.8-3.6-4.1c0,0-3.9-57.2-5.5-64.3c-1.6-7,16.4-4.3,16.4-4.3l82.1-3.1c0,0-1.4,7.8,14.5,6.6
	s34.5-0.4,34.5-0.4l-0.6,4.4l-33.1,0.3c0,0-5.6-0.8-5.7,5.3c-0.1,6.1,5.5,6.8,5.5,6.8l36.7,0.7C510.5,591.2,516.6,626.4,516,635.4z"
	/>
<polyline style="fill:none;stroke:#000000;stroke-miterlimit:10;" points="46.8,326.4 92.9,398.9 113.2,443.6 163.3,583.6 "/>
<path style="fill:none;stroke:#000000;stroke-miterlimit:10;" d="M35.9,165.3l13.3,16.6c0,0,8,12.3,27.4,8.6s244.3-73.7,244.3-73.7"
	/>
<path style="fill:none;stroke:#000000;stroke-miterlimit:10;" d="M62.4,203.2l32.8,190.4c0,0-2.7,29.3,40.7,18.4
	s388.5-122.3,388.5-122.3"/>
<path style="fill:none;stroke:#000000;stroke-miterlimit:10;" d="M111.4,303.9c0,0-4.7-17.5,12-21.9s79-25.3,79-25.3
	s19-8.3,21.6,17.2c2.6,25.5,6.8,68.5,6.8,68.5s2.3,10.9-10.9,14.3c-13.3,3.4-85.2,27.4-85.2,27.4s-9.4,7.3-12.8-16.2
	C118.5,344.5,111.4,303.9,111.4,303.9z"/>
<path style="fill:none;stroke:#000000;stroke-miterlimit:10;" d="M246.7,348.7c0,0-14.7,6.5-15.9-6.3c-1.2-12.7-8.6-82.9-8.6-82.9
	s3.6-9.9,14.6-12s174.1-53.9,174.1-53.9s15.6-5.7,16.9,12.5c1.3,18.2,3.1,68,3.1,68s5,14.9-20.6,22.9S246.7,348.7,246.7,348.7z"/>
<g>
	<path d="M138.9,301.4l-13.8-11.9c-0.1-0.1-0.3-0.2-0.5-0.1c-0.2,0.1-0.3,0.2-0.3,0.4l-3.4,17.9c0,0.2,0,0.4,0.2,0.5
		c0.1,0.1,0.3,0.2,0.5,0.1l17.2-6c0.2-0.1,0.3-0.2,0.3-0.4C139.1,301.7,139,301.5,138.9,301.4z M126.4,294.5
		c0.6-0.2,1.3,0.1,1.5,0.8l1.1,4.2c0.1,0.5,0.2,0.9,0,1.1c-0.1,0.1-0.3,0.2-0.4,0.3c-0.2,0.1-0.3,0.1-0.5,0.1
		c-0.3-0.1-0.4-0.3-0.7-0.8l-1.7-3.9C125.4,295.4,125.7,294.7,126.4,294.5z M129.6,303.7c-0.6,0.2-1.3-0.1-1.5-0.7
		c-0.2-0.6,0.1-1.3,0.7-1.5c0.6-0.2,1.3,0.1,1.5,0.7C130.5,302.8,130.2,303.5,129.6,303.7z"/>
</g>
<g>
	<path d="M141.4,298.1l-5.8-10.7l2.6-0.9l2.5,5.1c0.3,0.6,0.5,1.1,0.8,1.7c0.3,0.6,0.5,1.2,0.8,1.7l0.1,0c-0.1-0.6-0.2-1.3-0.2-1.9
		s-0.2-1.3-0.2-1.9l-0.5-5.7l2.2-0.7l3,5c0.3,0.5,0.6,1.1,0.9,1.7c0.3,0.6,0.6,1.1,0.9,1.7l0.1,0c-0.1-0.6-0.2-1.3-0.4-1.9
		c-0.1-0.6-0.2-1.2-0.3-1.9l-0.9-5.6l2.5-0.8l1.6,12.1l-3.2,1l-2.8-4.8c-0.2-0.4-0.5-0.8-0.7-1.3c-0.2-0.4-0.4-0.8-0.6-1.2l-0.1,0
		c0.1,0.4,0.1,0.9,0.2,1.4c0.1,0.5,0.1,0.9,0.2,1.4l0.6,5.5L141.4,298.1z"/>
	<path d="M153.2,294.3l-0.1-12.6l3.1-1l7.3,10.3l-2.7,0.9l-1.6-2.5l-3.5,1.1l0.2,2.9L153.2,294.3z M155.5,287.2l0.1,1.1l2.4-0.8
		l-0.6-1c-0.3-0.5-0.7-1.1-1.1-1.7c-0.4-0.6-0.7-1.2-1.1-1.7l-0.1,0c0.1,0.7,0.1,1.3,0.2,2C155.4,285.9,155.5,286.5,155.5,287.2z"/>
	<path d="M164.7,290.6l-3.7-11.4l4.1-1.3c0.6-0.2,1.2-0.3,1.8-0.4c0.6-0.1,1.1,0,1.6,0.1c0.5,0.1,0.9,0.4,1.3,0.8
		c0.4,0.4,0.7,0.9,0.9,1.6c0.3,0.8,0.3,1.6,0.1,2.3c-0.2,0.7-0.6,1.2-1.1,1.7l4.1,3.7l-2.9,0.9l-3.5-3.4l-1.4,0.5l1.3,4.1
		L164.7,290.6z M165.3,283.6l1.3-0.4c0.7-0.2,1.1-0.5,1.4-0.9c0.3-0.4,0.3-0.9,0.1-1.4c-0.2-0.6-0.5-0.9-0.9-1
		c-0.4-0.1-1-0.1-1.7,0.2l-1.3,0.4L165.3,283.6z"/>
	<path d="M175.5,287.1l-3.7-11.4l2.6-0.9l4.8,4.7l1.9,2.2l0.1,0c-0.3-0.6-0.5-1.2-0.9-2c-0.3-0.7-0.6-1.4-0.8-2.1l-1.3-4l2.5-0.8
		l3.7,11.4l-2.6,0.9l-4.8-4.7l-1.9-2.1l-0.1,0c0.3,0.6,0.5,1.3,0.9,2c0.3,0.7,0.6,1.4,0.8,2.1l1.3,4.1L175.5,287.1z"/>
	<path d="M187.1,283.4l-3.7-11.4l2.6-0.8l3.7,11.4L187.1,283.4z"/>
	<path d="M192.4,281.7l-3.7-11.4l2.6-0.9l4.8,4.7l1.9,2.2l0.1,0c-0.3-0.6-0.5-1.2-0.9-2c-0.3-0.7-0.6-1.4-0.8-2.1l-1.3-4l2.5-0.8
		l3.7,11.4l-2.6,0.9l-4.8-4.7l-1.9-2.1l-0.1,0c0.3,0.6,0.5,1.3,0.9,2c0.3,0.7,0.6,1.4,0.8,2.1l1.3,4.1L192.4,281.7z"/>
	<path d="M209.2,276.5c-0.8,0.3-1.6,0.4-2.3,0.3c-0.8,0-1.5-0.2-2.1-0.5c-0.7-0.3-1.3-0.8-1.8-1.5c-0.5-0.6-0.9-1.4-1.2-2.4
		c-0.3-0.9-0.4-1.8-0.4-2.7c0.1-0.8,0.3-1.6,0.6-2.3c0.3-0.7,0.8-1.3,1.4-1.7c0.6-0.5,1.3-0.9,2-1.1c0.8-0.3,1.6-0.3,2.3-0.2
		c0.7,0.1,1.3,0.3,1.8,0.6l-0.8,2.1c-0.4-0.2-0.8-0.3-1.1-0.4c-0.4-0.1-0.8,0-1.3,0.1c-0.4,0.1-0.8,0.4-1.1,0.6
		c-0.3,0.3-0.6,0.6-0.7,1c-0.2,0.4-0.3,0.9-0.3,1.4c0,0.5,0.1,1,0.3,1.6c0.4,1.2,0.9,2,1.7,2.5s1.6,0.5,2.7,0.2
		c0.2-0.1,0.5-0.2,0.7-0.3c0.2-0.1,0.4-0.3,0.5-0.4l-0.6-2l-1.9,0.6l-0.7-2.1l4.2-1.3l1.7,5.3c-0.3,0.5-0.7,1-1.3,1.5
		C210.7,275.9,210,276.2,209.2,276.5z"/>
</g>
<g>
	<path d="M301.8,250.3l-13.4-12.4c-0.1-0.1-0.3-0.2-0.5-0.1s-0.3,0.2-0.4,0.4l-4.1,17.8c0,0.2,0,0.4,0.2,0.5
		c0.1,0.1,0.3,0.2,0.5,0.1l17.4-5.4c0.2-0.1,0.3-0.2,0.4-0.4C301.9,250.6,301.9,250.4,301.8,250.3z M289.5,242.9
		c0.6-0.2,1.3,0.2,1.5,0.8l0.9,4.2c0.1,0.6,0.1,0.9,0,1.1c-0.1,0.1-0.3,0.2-0.4,0.2c-0.2,0.1-0.3,0.1-0.5,0
		c-0.3-0.1-0.4-0.4-0.6-0.9l-1.6-4C288.5,243.8,288.9,243.1,289.5,242.9z M292.4,252.3c-0.6,0.2-1.3-0.2-1.5-0.8
		c-0.2-0.6,0.2-1.3,0.8-1.5c0.6-0.2,1.3,0.2,1.5,0.8C293.4,251.4,293,252.1,292.4,252.3z"/>
</g>
<g>
	<path d="M308.3,246.2c-0.7,0.2-1.5,0.3-2.2,0.2c-0.7-0.1-1.4-0.3-2-0.6c-0.6-0.4-1.2-0.9-1.7-1.5c-0.5-0.7-0.9-1.5-1.1-2.4
		c-0.3-1-0.4-1.9-0.3-2.7c0.1-0.8,0.3-1.6,0.6-2.2c0.4-0.7,0.8-1.2,1.4-1.7s1.2-0.8,2-1c0.7-0.2,1.5-0.2,2.1-0.1
		c0.7,0.1,1.3,0.3,1.8,0.6l-0.9,2.1c-0.4-0.2-0.7-0.3-1.1-0.4c-0.4-0.1-0.8-0.1-1.2,0.1c-0.4,0.1-0.7,0.3-1,0.6
		c-0.3,0.3-0.5,0.6-0.7,1c-0.2,0.4-0.3,0.8-0.3,1.3c0,0.5,0.1,1,0.2,1.6c0.3,1.2,0.9,2,1.5,2.6c0.7,0.5,1.5,0.6,2.3,0.4
		c0.5-0.1,0.9-0.4,1.2-0.7c0.3-0.3,0.6-0.7,0.8-1l1.8,1.2C310.9,244.8,309.8,245.8,308.3,246.2z"/>
	<path d="M312.2,244.8l0.4-12.6l3.1-0.9l6.9,10.5l-2.8,0.8l-1.5-2.5l-3.5,1l0.1,2.9L312.2,244.8z M314.8,237.8l0,1.1l2.5-0.7l-0.6-1
		c-0.3-0.5-0.7-1.1-1-1.7c-0.3-0.6-0.7-1.2-1-1.7l-0.1,0c0,0.7,0.1,1.3,0.1,2C314.8,236.5,314.8,237.2,314.8,237.8z"/>
	<path d="M328.3,240.5c-1.5,0.4-2.8,0.3-3.8-0.4c-1-0.7-1.8-2-2.4-3.9l-1.8-6.2l2.6-0.7l1.8,6.5c0.3,1.1,0.7,1.9,1.2,2.2
		c0.5,0.4,1,0.4,1.7,0.3c0.7-0.2,1.1-0.6,1.3-1.1s0.2-1.4-0.1-2.5l-1.8-6.5l2.5-0.7l1.8,6.2c0.5,1.9,0.6,3.5,0,4.6
		C330.8,239.3,329.8,240.1,328.3,240.5z"/>
	<path d="M337.7,237.6l-2.6-9.4l-3.2,0.9l-0.6-2.2l9-2.5l0.6,2.2l-3.2,0.9l2.6,9.4L337.7,237.6z"/>
	<path d="M345.3,235.5l-3.3-11.6l2.6-0.7l3.3,11.6L345.3,235.5z"/>
	<path d="M355.4,232.9c-0.8,0.2-1.5,0.3-2.3,0.2c-0.7-0.1-1.4-0.3-2-0.7c-0.6-0.4-1.1-0.9-1.6-1.6c-0.5-0.7-0.8-1.5-1.1-2.4
		c-0.3-0.9-0.4-1.8-0.3-2.6c0-0.8,0.2-1.5,0.5-2.2c0.3-0.6,0.8-1.2,1.3-1.6c0.6-0.4,1.2-0.8,2-1s1.5-0.3,2.2-0.2
		c0.7,0.1,1.4,0.3,2,0.7c0.6,0.4,1.1,0.9,1.6,1.6s0.8,1.5,1.1,2.4c0.3,0.9,0.4,1.8,0.3,2.6c0,0.8-0.2,1.6-0.5,2.2
		c-0.3,0.6-0.8,1.2-1.3,1.7C356.9,232.3,356.2,232.7,355.4,232.9z M354.8,230.6c0.8-0.2,1.3-0.7,1.6-1.5c0.3-0.8,0.2-1.8-0.1-3
		c-0.3-1.2-0.8-2-1.5-2.5c-0.6-0.5-1.4-0.7-2.2-0.4s-1.3,0.7-1.6,1.5c-0.3,0.8-0.3,1.7,0.1,2.9c0.3,1.2,0.8,2,1.5,2.6
		C353.3,230.7,354,230.8,354.8,230.6z"/>
	<path d="M362.8,230.6l-3.3-11.6l2.7-0.8l4.6,4.9l1.9,2.2l0.1,0c-0.2-0.6-0.5-1.3-0.8-2c-0.3-0.7-0.5-1.4-0.7-2.1l-1.2-4.1l2.5-0.7
		l3.3,11.6l-2.7,0.8l-4.6-4.9l-1.8-2.2l-0.1,0c0.2,0.6,0.5,1.3,0.8,2c0.3,0.7,0.5,1.4,0.7,2.1l1.2,4.1L362.8,230.6z"/>
</g>
<path d="M218.3,288.3c-1.8-8.1-8.9-6-8.9-6s-64.6,20.3-76.4,23.7c-11.7,3.4-7.8,15.6-7.8,15.6s5.2,24,6.3,39.3
	c1,15.4,12,10.7,12,10.7s63.6-19,71.9-23.2s8.6-14.6,8.6-14.6S220.1,296.3,218.3,288.3z M142.2,322.4l-3.1-5.9l69.6-22.1l2,6.4
	L142.2,322.4z M144.9,330.6l23.8-6.6l2.1,6.6l-23.6,8.2L144.9,330.6z M153.9,363.4l-2-5.9l24.2-7.2l2.3,5.3L153.9,363.4z
	 M151.9,354.1l-3.9-6.6l65.7-21l1.6,7.4L151.9,354.1z M177.7,329.4l-2.9-7l38.5-13.6l2,6.8L177.7,329.4z"/>
<polygon points="246.3,281.2 313.2,260.1 313.2,267.7 246.3,288 "/>
<polygon points="246.3,293.1 285.4,282 286.2,289.4 246.3,300.8 "/>
<polygon points="288.7,282 307.3,275.5 307.3,283.7 288.7,290.5 "/>
<polygon points="247.9,310.3 316.5,289.4 316.5,298.8 247.9,319.1 "/>
<polygon points="249.3,326.4 288.7,313.6 288.7,324 249.3,336.5 "/>
<path d="M417.1,230.4c0,0-0.8-11.5-12-8.6c-11.2,2.9-162.6,51.3-162.6,51.3s-9.6,2.9-8.1,15.6c1.6,12.8,4,40.1,4,40.1
	s-0.3,13,14.3,9.1c14.6-3.9,158.7-50.3,158.7-50.3s9.6-3.6,8.9-16.1C419.4,259.1,417.1,230.4,417.1,230.4z M335.4,251.1l66.8-21.1
	v7.6L335.4,258V251.1z M396.4,245.4v8.2l-18.7,6.8V252L396.4,245.4z M335.4,263l39.1-11.1l0.8,7.4l-39.9,11.5V263z M377.8,293.9
	l-39.4,12.5v-10.1l39.4-12.8V293.9z M405.6,268.8L337,289.1v-8.8l68.6-20.9V268.8z"/>
</svg>
