<?xml version="1.0" encoding="utf-8"?>
<!-- Generator: Adobe Illustrator 24.1.3, SVG Export Plug-In . SVG Version: 6.00 Build 0)  -->
<svg version="1.0" id="Layer_2" xmlns="http://www.w3.org/2000/svg" xmlns:xlink="http://www.w3.org/1999/xlink" width="800px" height="800px" x="0px" y="0px"
	 viewBox="0 0 800 800" style="enable-background:new 0 0 800 800;" xml:space="preserve">
<path style="fill:none;stroke:#000000;stroke-width:0.5;stroke-miterlimit:10;" d="M322.6,405.1l29.9-79.5c0,0-16.5-4-19.7,9.8
	c-3.1,13.8-14.7,52.3-14.7,52.3S314.9,399.9,322.6,405.1z"/>
<g>
	<path d="M736.3,237.1c0,0-91.1-112.6-223.8-73.7s-150.8,136-150.8,136s6.7,0.7-18.1,0c-24.8-0.7-30.8,18.1-30.8,18.1
		s-20.8,63.7-24.1,81.8c-3.4,18.1,24.1,32.8,24.1,32.8s-3.4,8-10.7,27.5c-7.4,19.4,10.7,25.5,10.7,25.5s40.9,6.7,46.9,6.7
		c6,0,6.7,8,6.7,8s0,70.4,2,111.2c2,40.9,62.3,55,62.3,55s0,0,106.7-1.3s192.9-107.9,192.9-107.9
		C852.9,384.6,736.3,237.1,736.3,237.1z M694.3,381.9c0,0-3.1,16.5-18.8,0.9c0,0,4.9-52.7-57.2-62.5l-84.4,0.9c0,0-9.4,1.8-13.4,13
		c-4,11.2-31.3,75.2-31.3,75.2s-8.5,20.4-33.1,21.1c-24.6,0.7-139.2,0-139.2,0s-31.1-12.3-24.3-37.5c6.7-25.2,15-52.7,15-52.7
		l7.8-22.1c0,0,8.9-16.3,29-16.5c20.1-0.2,171.8,0,171.8,0l108.3-0.1c0,0,39.8,2.8,57.2,34.5C699.2,367.6,694.3,381.9,694.3,381.9z"
		/>
	<path d="M460.7,322.5c0,0-102.3,0-116.2,0c-13.8,0-14.7,15.6-14.7,15.6s-9.4,29-15.6,50.9c-6.3,21.9,20.6,21.6,20.6,21.6
		s112.6,0.3,122.9,0c10.3-0.3,13.8-12.7,13.8-12.7s0.4-53.2,0-61.7C470.9,327.8,460.7,322.5,460.7,322.5z M430.6,372.5
		c-9.4,0-17.1-7.7-17.1-17.1c0-9.4,7.7-17.1,17.1-17.1c9.4,0,17.1,7.7,17.1,17.1C447.7,364.9,440,372.5,430.6,372.5z"/>
</g>
<polyline style="fill:none;stroke:#000000;stroke-width:3;stroke-miterlimit:10;" points="107.8,435.5 289.2,339.9 224.9,294.7 "/>
<polygon points="179.4,260.9 213.3,309.9 236.3,278.3 "/>
<line style="fill:none;stroke:#000000;stroke-width:3;stroke-miterlimit:10;" x1="64.5" y1="498.9" x2="196.8" y2="429.5"/>
<polygon points="252.5,399.3 186.3,409.2 207.3,448.8 "/>
<line style="fill:none;stroke:#000000;stroke-width:3;stroke-miterlimit:10;" x1="13.8" y1="573.8" x2="146.1" y2="504.4"/>
<polygon points="201.8,474.3 135.5,484.2 156.6,523.7 "/>
</svg>
