<?xml version="1.0" encoding="utf-8"?>
<!-- Generator: Adobe Illustrator 24.1.3, SVG Export Plug-In . SVG Version: 6.00 Build 0)  -->
<svg version="1.0" id="Layer_2" xmlns="http://www.w3.org/2000/svg" xmlns:xlink="http://www.w3.org/1999/xlink" width="800px" height="800px" x="0px" y="0px"
	 viewBox="0 0 800 800" style="enable-background:new 0 0 800 800;" xml:space="preserve">
<path d="M570.6,173c0,0-45.7-26.4-87.9,6.2c-42.2,32.5-23.7,82.2-23.7,82.2l-13.6,10.6l91.5,108.6l27.7-25.1l0.4-15.8l-1.8-6.2h7.5
	C670.4,245.1,570.6,173,570.6,173z M559.2,355.9c-4,4.4-22.4,19.3-22.4,19.3l-84.4-103.5l63.3-53l45.3,119.2
	C560.9,337.9,563.1,351.5,559.2,355.9z M527.8,232l-7.5-21l-11.3,9.2l-30.2-34.6c0,0-0.3-1,0-2.3c0,0,7.6-7.3,12.5-9.1l34.3,40.9
	l46.6-39.9c0,0,6.3,3.8,10.6,9.7L527.8,232z"/>
<path d="M674.8,304.9c0,0-16.7-26.4-45.7,0c-29,26.4-150.4,129.3-150.4,129.3l-99.4-53.6c0,0-1.2-16.4-27.9-15.2c0,0-2.1,0-1.2,2.6
	c0,0-14.1-0.3-15.8,10.3c0,0-5.1,0.4-9.2,13.9c0,0-9.8-1.4-10.6,7.6c0,0,20.7,3.3,26.4,24.4l124,75.2c0,0,14.1,19.3,48.8-4
	s74.3-50.6,74.3-50.6l196.6,192.6h8.8V419.2L674.8,304.9z M338.2,399.7c0,0-3.2-5.3-7.7-5.4c0,0-3.4-1.6,0-2.9c0,0,7.8-0.4,11.2,6.5
	C341.7,397.9,342.5,401.4,338.2,399.7z M349.2,391.4c-2-5.9-11.1-6.5-11.1-6.5s-2.5-3.8,2.3-3.8c4.8,0,11.1,3.7,11.3,7.8
	C351.9,392.9,349.2,391.4,349.2,391.4z M359.8,380.5c0,0-1.8,1.8-3.2-0.9c-1.4-2.6-8.4-4.2-8.4-4.2s-4.4-4,1.4-3.3
	c5.8,0.7,9.6,5.4,10.1,6.1C360.4,379,359.8,380.5,359.8,380.5z"/>
<path d="M255.9,484.3l6.4-23.5c0,0,0.6-4.7,15.8-18.8s39.9-34.6,39.9-34.6l14.7,15.2l-50.4,42.5c0,0-7,0.9-10,19.1
	C269.4,502.5,255,487.3,255.9,484.3z"/>
<path d="M368.5,363.5c0,0,62.9-64,138.5,36.6L493.3,411c0,0-52.5-84.4-109.1-38.9C384.3,372.1,372.4,360.6,368.5,363.5z"/>
<polygon points="554.1,479 565.5,469.1 723.2,633.8 698,633.8 "/>
<path d="M255.8,538.2c-10.8,6.1-16.3,5.6-18.6,4.8c0.1-0.4-0.2-1.6-1.3-4.2c-2.9-7,0-11.4,0-11.4c-2.1-1.2-1.5-9.7-1.5-9.7l1.5-7
	l-42.2-60.4h-61.6C61.8,286.1,9,278.5,9,278.5V297c47.5,32.5,96.7,153.3,96.7,153.3H9v42.8h121.4l81.8,140.4h26.4
	c0,0-6.7-13.5-13.5-20.8c-6.7-7.3,2.6-10.6,10-9.7c7.3,0.9,10.3-3.2,10.3-3.2l3.8-3.2l28.4,36.9H329L255.8,538.2z M211.8,590.3
	l-57.6-97.2h18.5l55,74.3L211.8,590.3z M245.2,595.6c-3.2-0.6-4.5-0.9-4.5-2.9l-7.8,0.7l-1.2-0.3c0,0,4.7-3.8,5-7.2
	c0,0-0.4-1.5-6.3-0.7c0,0,4.1-2.1,0-6.6c0,0-0.3-4.7,3.5-3.4l12.8,17.4C246.6,592.6,248.4,596.1,245.2,595.6z"/>
<path d="M260.1,490.6C236.2,508,237.2,543,237.2,543C277.1,520,260.1,490.6,260.1,490.6z M247.1,520.1c0,0,1.8-15.1,8.7-18.8
	C255.8,501.3,263,509.5,247.1,520.1z"/>
<path d="M257.4,535.7v-5.3l32.1-42.7c0,0,6.5,0,4.7,2.8c-1.8,2.7-30.5,45.2-30.5,45.2H257.4z"/>
<path d="M266.7,546.1V543l30.3-27.7c0,0,6.8-0.6,4,4.8l-30.8,27.8L266.7,546.1z"/>
<polygon points="276,559.5 279.3,555.5 323,529.8 324.8,533.6 284.2,561 278.8,563.5 "/>
<polygon points="295.7,561.7 296.8,558.2 329,544.1 330.5,547.8 300.4,563.5 "/>
<polygon points="288.5,574 288.5,571.1 351.7,550.7 353.4,553.8 290,576.9 "/>
<polygon points="297.5,585.3 298.8,582.4 358.9,573.8 358.9,576.9 302.8,590.3 299.5,590.3 "/>
<path d="M294.6,498.4l1.2-2.9l0.9-4.9l2.2-7.2l1.6-30.8l31.2-26.4l15.1,9.7l-9.3,23.1l-3.2,9l3.2,0.4l3.2-12.5l9.5-17.4l13.2,9
	l-4.4,22.9l-2.4,5.1l-0.2,4.6l-2.8,7.7l-2.9,8.1l1.2,1.1l5.8-11.2l1.3-7.7l2.6-3.3l-0.4-5.1l2.2-1.8v-4.8l2-2l0.9-3.3l2.3-3.7v-3.9
	l30.9,19.1l-20.9,27.9l0.9,1.1l3.3-2.4l2-0.4l8.4-7.7l0.8,1.1l4.7-5.1l2-0.4l1-3.3l3-1.3l2-3.1v-3.3l36.5,22.9l-15,12.8l-7.7,4.8
	l-4.6,3.9l-4.6,1.6l-2.2,1.7l4.4,1.4l37.2-21.3l24,14.1c0,0,11.2,7.7,22.9,1.1c11.7-6.6,50.8-34.9,50.8-34.9l15.2,15.4l-11,10.6
	l-7.7,5.5l-5.7,6.2c0,0-0.2,6.6,22.8,0.2l13.7-9.2l18.2,19.3c0,0-20.7,27.9-57.8,33c-37.2,5.1-56.1,3.7-56.1,3.7s-35.6-3-57.2,0.2
	c-21.5,3.1-60.7,11.7-60.7,11.7l-2.9-5.7l3.7-4l2-5.7l0.9-3.3l-5.4-1.1c0,0,1.2-3.5,2.3-3.3c1.1,0.2,1.3-0.9,1.3-0.9l-7.7,0.9
	l-2.6-3.1l-28.6,7.5l-5.9-0.9l-0.6-3.1l13.6-6.4L329,543l-0.8-3.1v-2l7.2-4l6.4-7.3l-11.3-1.1l-5.7,3.3l-8.5,4.8l-0.7-5.3l6.8-7
	c0,0-5.3-4,1.3-9.7h-2.7l-13.1,11.4l-6.1-1.1l11.4-14.1l-9-0.9l2.9-2.6l-0.7-1.8c0,0,15.8-12.1,15.6-26.2l-8.8,14l-4,4.9l-1.3,3.5
	l-1.5,1.5L294.6,498.4z"/>
<path d="M567.9,467.1l18.9-15c0,0-13.3,18.6-9.5,25.9L567.9,467.1z"/>
<path d="M595.7,495.7l14.5-20.7c0,0,0,20.7,0,22.4c0,1.8,0,1.8,0,1.8l-6.4,9.8L595.7,495.7z"/>
</svg>
